<svg id="圖層_1" data-name="圖層 1" xmlns="http://www.w3.org/2000/svg" xmlns:xlink="http://www.w3.org/1999/xlink" viewBox="0 0 1000 1000"><defs><clipPath id="clip-path"><path d="M552.64,0H252a52,52,0,0,0-43,22.8L18.23,304.17a52,52,0,0,0,0,58.32l186.49,275a52,52,0,0,1,0,58.32l-151.26,223c-23.39,34.5,1.32,81.12,43,81.12H748a52,52,0,0,0,43-22.8L981.77,695.83a52,52,0,0,0,0-58.32l-186.49-275a52,52,0,0,1,0-58.32l151.26-223C969.93,46.62,945.22,0,903.54,0Z" fill="none"/></clipPath></defs><title>CFP_favicon</title><g clip-path="url(#clip-path)"><rect x="249.54" y="-647.77" width="109.91" height="1342.24" transform="translate(210.55 -267.23) rotate(67.7)" fill="#ddbe67"/><rect x="327.74" y="-457.11" width="109.91" height="1342.24" transform="translate(435.47 -221.28) rotate(67.7)" fill="#ddbe67"/><rect x="405.95" y="-266.45" width="109.91" height="1342.24" transform="translate(660.4 -175.32) rotate(67.7)" fill="#ddbe67"/><rect x="484.15" y="-75.79" width="109.91" height="1342.24" transform="translate(885.32 -129.36) rotate(67.7)" fill="#ddbe67"/><rect x="562.35" y="114.87" width="109.91" height="1342.24" transform="translate(1110.25 -83.4) rotate(67.7)" fill="#ddbe67"/><rect x="640.55" y="305.54" width="109.91" height="1342.24" transform="translate(1335.18 -37.45) rotate(67.7)" fill="#ddbe67"/></g></svg>