<svg width="140" height="40" viewBox="0 0 140 40" fill="none" xmlns="http://www.w3.org/2000/svg">
<g clip-path="url(#clip0_487_754)">
<path d="M17.8353 20.9958C17.4244 17.3913 15.1643 15.6292 11.0151 15.6292C7.35671 15.6292 5.01101 17.1158 5.01101 19.3887C5.01101 21.3115 6.44925 22.4479 9.94211 23.1941L14.3824 24.1354C17.6298 24.8414 19.2735 25.5072 20.5862 26.6437C21.3086 27.2585 21.8851 28.0282 22.2732 28.8962C22.6613 29.7643 22.8513 30.7087 22.8292 31.6602C22.8292 36.6021 18.64 39.6556 11.9853 39.6556C4.8512 39.6556 0.57073 36.206 0 29.9383H4.0693C4.48023 34.0938 7.35671 36.4012 12.0595 36.4012C16.0033 36.4012 18.7998 34.5587 18.7998 31.9357C18.7998 29.9727 17.3216 28.6813 14.4452 28.0155L8.29841 26.6035C3.2874 25.467 1.02731 23.3491 1.02731 19.8249C1.02731 15.2331 5.02242 12.3633 11.3004 12.3633C17.5785 12.3633 20.9572 15.147 21.8247 21.0245L17.8353 20.9958Z" fill="#1E1E1E"/>
<path d="M17.8353 20.9958C17.4244 17.3913 15.1643 15.6292 11.0151 15.6292C7.35671 15.6292 5.01101 17.1158 5.01101 19.3887C5.01101 21.3115 6.44925 22.4479 9.94211 23.1941L14.3824 24.1354C17.6298 24.8414 19.2735 25.5072 20.5862 26.6437C21.3086 27.2585 21.8851 28.0282 22.2732 28.8962C22.6613 29.7643 22.8513 30.7087 22.8292 31.6602C22.8292 36.6021 18.64 39.6556 11.9853 39.6556C4.8512 39.6556 0.57073 36.206 0 29.9383H4.0693C4.48023 34.0938 7.35671 36.4012 12.0595 36.4012C16.0033 36.4012 18.7998 34.5587 18.7998 31.9357C18.7998 29.9727 17.3216 28.6813 14.4452 28.0155L8.29841 26.6035C3.2874 25.467 1.02731 23.3491 1.02731 19.8249C1.02731 15.2331 5.02242 12.3633 11.3004 12.3633C17.5785 12.3633 20.9572 15.147 21.8247 21.0245L17.8353 20.9958Z" fill="black" fill-opacity="0.2"/>
<path d="M31.8468 39.0703H27.9658V12.9202H31.8468V39.0703Z" fill="#1E1E1E"/>
<path d="M31.8468 39.0703H27.9658V12.9202H31.8468V39.0703Z" fill="black" fill-opacity="0.2"/>
<path d="M48.1581 39.0703H44.2543V16.1746H35.6934V12.9202H56.7076V16.1746H48.1467L48.1581 39.0703Z" fill="#1E1E1E"/>
<path d="M48.1581 39.0703H44.2543V16.1746H35.6934V12.9202H56.7076V16.1746H48.1467L48.1581 39.0703Z" fill="black" fill-opacity="0.2"/>
<path d="M78.6123 21.1165C77.7905 17.6726 75.0339 15.5891 71.2556 15.5891C65.9935 15.5891 62.5406 19.6643 62.5406 25.8173C62.5406 32.131 65.965 36.4013 71.1015 36.4013C75.3763 36.4013 78.3384 33.6577 78.9548 29.1119H82.8985C82.7231 31.3248 81.9077 33.4377 80.5528 35.1902C78.2699 38.1691 75.1309 39.6557 71.0216 39.6557C66.9124 39.6557 63.7049 38.1691 61.4048 35.1902C59.3896 32.5224 58.3315 29.2472 58.4028 25.8976C58.4028 17.9424 63.7049 12.3347 71.2271 12.3347C77.0599 12.3347 81.2149 15.4686 82.402 20.7606L78.6123 21.1165Z" fill="#1E1E1E"/>
<path d="M78.6123 21.1165C77.7905 17.6726 75.0339 15.5891 71.2556 15.5891C65.9935 15.5891 62.5406 19.6643 62.5406 25.8173C62.5406 32.131 65.965 36.4013 71.1015 36.4013C75.3763 36.4013 78.3384 33.6577 78.9548 29.1119H82.8985C82.7231 31.3248 81.9077 33.4377 80.5528 35.1902C78.2699 38.1691 75.1309 39.6557 71.0216 39.6557C66.9124 39.6557 63.7049 38.1691 61.4048 35.1902C59.3896 32.5224 58.3315 29.2472 58.4028 25.8976C58.4028 17.9424 63.7049 12.3347 71.2271 12.3347C77.0599 12.3347 81.2149 15.4686 82.402 20.7606L78.6123 21.1165Z" fill="black" fill-opacity="0.2"/>
<path d="M136.057 39.0703L124.836 22.5686C123.483 20.5253 122.662 19.2338 121.982 18.0572C122.062 19.2051 122.102 21.7019 122.102 22.9991V39.0703H118.427V12.9202H122.422L133.186 28.8364C134.35 30.5843 135.424 32.3909 136.405 34.2489C136.325 32.7968 136.279 31.1896 136.279 29.3472V13.0809H139.978V39.0703H136.057Z" fill="#1E1E1E"/>
<path d="M136.057 39.0703L124.836 22.5686C123.483 20.5253 122.662 19.2338 121.982 18.0572C122.062 19.2051 122.102 21.7019 122.102 22.9991V39.0703H118.427V12.9202H122.422L133.186 28.8364C134.35 30.5843 135.424 32.3909 136.405 34.2489C136.325 32.7968 136.279 31.1896 136.279 29.3472V13.0809H139.978V39.0703H136.057Z" fill="black" fill-opacity="0.2"/>
<path d="M105.1 1.23982C105.821 0.716514 106.641 0.347252 107.51 0.154766C108.379 -0.0377201 109.277 -0.0493561 110.151 0.120574C110.151 0.120574 109.694 3.42664 107.377 5.20595C105.06 6.98526 101.767 6.56626 101.767 6.56626C102.288 5.75438 102.766 4.9152 103.199 4.05227C103.633 3.22575 104.244 1.89988 105.1 1.23982Z" fill="#1E1E1E"/>
<path d="M105.1 1.23982C105.821 0.716514 106.641 0.347252 107.51 0.154766C108.379 -0.0377201 109.277 -0.0493561 110.151 0.120574C110.151 0.120574 109.694 3.42664 107.377 5.20595C105.06 6.98526 101.767 6.56626 101.767 6.56626C102.288 5.75438 102.766 4.9152 103.199 4.05227C103.633 3.22575 104.244 1.89988 105.1 1.23982Z" fill="black" fill-opacity="0.2"/>
<path d="M99.5406 3.93752C99.2035 3.69188 98.8199 3.5183 98.4135 3.42748C98.0071 3.33666 97.5866 3.33053 97.1777 3.40947C97.3229 4.32853 97.7808 5.16841 98.4733 5.7857C99.2468 6.29682 100.173 6.52201 101.093 6.42281C100.849 6.05181 100.625 5.66868 100.419 5.27487C100.222 4.77249 99.9228 4.31702 99.5406 3.93752Z" fill="#1E1E1E"/>
<path d="M99.5406 3.93752C99.2035 3.69188 98.8199 3.5183 98.4135 3.42748C98.0071 3.33666 97.5866 3.33053 97.1777 3.40947C97.3229 4.32853 97.7808 5.16841 98.4733 5.7857C99.2468 6.29682 100.173 6.52201 101.093 6.42281C100.849 6.05181 100.625 5.66868 100.419 5.27487C100.222 4.77249 99.9228 4.31702 99.5406 3.93752Z" fill="black" fill-opacity="0.2"/>
<path d="M99.8032 11.8181C100.117 11.8181 100.437 11.8181 100.751 11.8525C100.382 10.1732 100.608 8.41723 101.39 6.8877C99.8774 8.11025 99.1412 9.98714 98.7588 11.864C99.1069 11.8353 99.4551 11.8181 99.8032 11.8181Z" fill="#1E1E1E"/>
<path d="M99.8032 11.8181C100.117 11.8181 100.437 11.8181 100.751 11.8525C100.382 10.1732 100.608 8.41723 101.39 6.8877C99.8774 8.11025 99.1412 9.98714 98.7588 11.864C99.1069 11.8353 99.4551 11.8181 99.8032 11.8181Z" fill="black" fill-opacity="0.2"/>
<path d="M99.803 12.3862C97.0872 12.3862 94.4323 13.1962 92.1741 14.7136C89.9159 16.231 88.1559 18.3878 87.1166 20.9112C86.0772 23.4346 85.8053 26.2113 86.3351 28.8901C86.865 31.5689 88.1728 34.0296 90.0932 35.9609C92.0137 37.8922 94.4604 39.2075 97.1241 39.7403C99.7878 40.2732 102.549 39.9997 105.058 38.9545C107.567 37.9093 109.712 36.1392 111.221 33.8682C112.729 31.5972 113.535 28.9273 113.535 26.196C113.535 22.5334 112.088 19.0208 109.513 16.431C106.938 13.8412 103.445 12.3862 99.803 12.3862ZM105.413 31.8381L99.803 27.9523L94.1699 31.8381L98.0338 26.196L94.1699 20.5538L99.7802 24.4339L105.39 20.5538L101.532 26.196L105.413 31.8381Z" fill="#1E1E1E"/>
<path d="M99.803 12.3862C97.0872 12.3862 94.4323 13.1962 92.1741 14.7136C89.9159 16.231 88.1559 18.3878 87.1166 20.9112C86.0772 23.4346 85.8053 26.2113 86.3351 28.8901C86.865 31.5689 88.1728 34.0296 90.0932 35.9609C92.0137 37.8922 94.4604 39.2075 97.1241 39.7403C99.7878 40.2732 102.549 39.9997 105.058 38.9545C107.567 37.9093 109.712 36.1392 111.221 33.8682C112.729 31.5972 113.535 28.9273 113.535 26.196C113.535 22.5334 112.088 19.0208 109.513 16.431C106.938 13.8412 103.445 12.3862 99.803 12.3862ZM105.413 31.8381L99.803 27.9523L94.1699 31.8381L98.0338 26.196L94.1699 20.5538L99.7802 24.4339L105.39 20.5538L101.532 26.196L105.413 31.8381Z" fill="black" fill-opacity="0.2"/>
</g>
<defs>
<clipPath id="clip0_487_754">
<rect width="140" height="40" fill="white"/>
</clipPath>
</defs>
</svg>
