<svg width="726" height="460" viewBox="0 0 726 460" fill="none" xmlns="http://www.w3.org/2000/svg">
<path d="M18.1043 331.498L39.2223 336.068L28.7409 381.21L8 376.984L18.1043 331.498Z" fill="#462002"/>
<path d="M39.2222 336.068L28.7408 381.21L50.7794 385.702L60.0075 340.56L39.2222 336.068Z" fill="#AC854C"/>
<path d="M38.0349 373.888L40.1685 364.138L39.4218 363.967C39.0266 363.878 38.6826 363.636 38.4648 363.294C38.247 362.951 38.173 362.537 38.259 362.141L39.7525 355.392C39.9335 354.6 40.4192 353.911 41.1042 353.475C41.7892 353.039 42.6184 352.891 43.4116 353.064L47.9028 354.057C48.6961 354.236 49.3866 354.721 49.8242 355.407C50.2618 356.093 50.4109 356.924 50.2391 357.72L48.7456 364.469C48.6539 364.865 48.41 365.21 48.0666 365.428C47.7232 365.645 47.308 365.719 46.9107 365.633L46.1639 365.473L44.0303 375.212C43.9386 375.608 43.6947 375.953 43.3514 376.171C43.008 376.389 42.5927 376.462 42.1954 376.376L39.1978 375.714C38.8025 375.625 38.4586 375.383 38.2408 375.04C38.023 374.698 37.949 374.284 38.0349 373.888Z" fill="#F8F3E8"/>
<path d="M46.0144 352.06C46.6054 352.188 47.2213 352.139 47.7844 351.918C48.3475 351.697 48.8325 351.314 49.1783 350.817C49.5241 350.32 49.7151 349.732 49.7273 349.127C49.7395 348.521 49.5723 347.926 49.2468 347.416C48.9213 346.905 48.452 346.503 47.8983 346.259C47.3446 346.015 46.7312 345.941 46.1355 346.046C45.5398 346.151 44.9885 346.431 44.5512 346.849C44.1138 347.267 43.81 347.806 43.6782 348.397C43.5902 348.791 43.5809 349.198 43.6508 349.596C43.7208 349.994 43.8685 350.374 44.0856 350.714C44.3027 351.055 44.5849 351.349 44.9159 351.58C45.2469 351.81 45.6203 351.974 46.0144 352.06Z" fill="#F8F3E8"/>
<path d="M21.6148 370.406L23.2044 362.814L25.6473 363.337C25.8478 363.381 26.0549 363.384 26.2566 363.347C26.4584 363.31 26.6507 363.233 26.8225 363.12C26.9942 363.008 27.142 362.863 27.257 362.693C27.3721 362.523 27.4523 362.331 27.4929 362.13C27.514 361.971 27.514 361.809 27.4929 361.65L26.4047 351.376C26.3321 350.729 26.0582 350.121 25.6218 349.638C25.1854 349.155 24.6084 348.822 23.9724 348.685H23.7911C23.1531 348.548 22.4881 348.615 21.8906 348.878C21.2931 349.141 20.7935 349.585 20.4627 350.148L15.2247 359.044C15.1185 359.219 15.0481 359.413 15.0175 359.616C14.9868 359.818 14.9966 360.025 15.0462 360.223C15.0958 360.422 15.1843 360.609 15.3065 360.773C15.4287 360.937 15.5822 361.075 15.7581 361.18C15.9041 361.274 16.0672 361.34 16.2382 361.372L18.6811 361.895L17.0596 369.445C16.977 369.849 17.056 370.268 17.2794 370.614C17.5029 370.959 17.8531 371.203 18.2544 371.293L19.7693 371.613C19.969 371.657 20.1754 371.661 20.3765 371.624C20.5777 371.588 20.7696 371.512 20.9413 371.4C21.1129 371.289 21.2608 371.145 21.3764 370.976C21.492 370.807 21.573 370.617 21.6148 370.417" fill="#F8F3E8"/>
<path d="M24.2716 347.147C24.8718 347.275 25.4963 347.222 26.0663 346.994C26.6362 346.767 27.126 346.375 27.4739 345.869C27.8217 345.363 28.012 344.766 28.0207 344.151C28.0293 343.537 27.856 342.934 27.5225 342.419C27.1891 341.903 26.7105 341.498 26.1472 341.255C25.5839 341.011 24.9611 340.94 24.3576 341.051C23.754 341.161 23.1968 341.449 22.7562 341.876C22.3155 342.303 22.0114 342.852 21.882 343.452C21.711 344.26 21.8665 345.101 22.3144 345.794C22.7623 346.487 23.4661 346.973 24.2716 347.147Z" fill="#F8F3E8"/>
<path d="M623.051 323.08L523.34 344.042L520.656 331.465L486.572 338.741L502.699 412.288L637.57 385.28L623.051 323.08Z" fill="#AC854C"/>
<path d="M84.8856 30.9654L256.802 66.0253L266.563 24.1886L305.76 33.0617L303.408 45.1291L378.464 44.5634V33.3722L418.648 24L430.904 69.4193L607.013 30.1225L628.453 132.929L666.164 125.386L717.894 369.209L462.559 420.329C376.623 441.713 311.605 440.293 220.578 420.329L8 376.984L84.8856 30.9654Z" stroke="#442116" stroke-miterlimit="10"/>
<path d="M240.62 327.228L296.443 339.95L292.35 359.448L236.095 347.725L240.62 327.228Z" stroke="#442116" stroke-miterlimit="10"/>
<path d="M441.64 327.084L385.251 338.53L389.633 359.171L446.443 347.292L441.64 327.084Z" stroke="#442116" stroke-miterlimit="10"/>
<path d="M619.091 88.1639L570.733 98.8116L637.569 385.28L717.827 369.209L666.097 125.387L628.408 132.929L619.091 88.1639Z" stroke="#442116" stroke-miterlimit="10"/>
<path d="M112.026 69.9851L229.34 94.852L212.947 176.274L94.2134 151.108L112.026 69.9851Z" stroke="#442116" stroke-miterlimit="10"/>
<path d="M94.2133 155.921L210.972 180.799L192.871 266.735L74.4263 241.292L94.2133 155.921Z" stroke="#442116" stroke-miterlimit="10"/>
<path d="M552.133 73.8005L556.791 94.9962L457.435 117.334L452.344 94.852L552.133 73.8005Z" stroke="#442116" stroke-miterlimit="10"/>
<path d="M252.676 84.1155L247.02 108.994L334.087 128.026L338.989 102.394L252.676 84.1155Z" stroke="#442116" stroke-miterlimit="10"/>
<path d="M279.751 135.757L255.449 256.742L292.195 261.079L294.414 266.547L313.457 269.375V262.022H310.252L314.4 250.708H371.133L375.847 262.022L371.51 262.21L371.698 269.375L391.097 267.345L394.491 262.443L427.288 256.975L405.649 135.757C405.649 135.757 343.171 153.747 279.751 135.757Z" stroke="#442116" stroke-miterlimit="10"/>
<path d="M564.522 132.929C563.579 133.306 502.698 146.494 502.698 146.494L525.691 253.537L589.012 240.16L564.522 132.929Z" stroke="#442116" stroke-miterlimit="10"/>
<path d="M497.618 147.625L465.01 154.79L487.437 262.399L521.554 254.857L497.618 147.625Z" stroke="#442116" stroke-miterlimit="10"/>
<path d="M623.051 323.08C620.589 323.69 523.339 344.042 523.339 344.042L520.655 331.465L446.443 347.292L439.522 316.059L612.825 279.247L623.051 323.08Z" stroke="#442116" stroke-miterlimit="10"/>
<path d="M59.2755 323.08C61.7489 323.69 158.998 344.042 158.998 344.042L161.682 331.465L235.884 347.292L242.805 316.059L69.5018 279.247L59.2755 323.08Z" stroke="#442116" stroke-miterlimit="10"/>
<path d="M299.182 63.3524L259.708 54.1577L266.707 24.2552L305.493 33.0175L299.182 63.3524Z" stroke="#442116" stroke-miterlimit="10"/>
<path d="M418.648 24L426.756 54.0577L386.582 64.0843L380.427 32.9175L418.648 24Z" stroke="#442116" stroke-miterlimit="10"/>
<path d="M248.085 328.925C248.14 328.925 243.271 349.222 243.271 349.222" stroke="#442116" stroke-width="0.5" stroke-miterlimit="10"/>
<path d="M256.791 330.888L251.967 351.185" stroke="#442116" stroke-width="0.5" stroke-miterlimit="10"/>
<path d="M265.487 332.851L260.662 353.148" stroke="#442116" stroke-width="0.5" stroke-miterlimit="10"/>
<path d="M274.182 334.814L269.369 355.112" stroke="#442116" stroke-width="0.5" stroke-miterlimit="10"/>
<path d="M285.5 337.5L281.204 357.075" stroke="#442116" stroke-width="0.5" stroke-miterlimit="10"/>
<path d="M294 339.5L289.899 359.038" stroke="#442116" stroke-width="0.5" stroke-miterlimit="10"/>
<path d="M435.462 328.459L439.899 348.845" stroke="#442116" stroke-width="0.5" stroke-miterlimit="10"/>
<path d="M426.734 330.256L431.17 350.631" stroke="#442116" stroke-width="0.5" stroke-miterlimit="10"/>
<path d="M418.004 332.042L422.441 352.427" stroke="#442116" stroke-width="0.5" stroke-miterlimit="10"/>
<path d="M409.265 333.827L413.701 354.213" stroke="#442116" stroke-width="0.5" stroke-miterlimit="10"/>
<path d="M400.536 335.624L404.972 355.999" stroke="#442116" stroke-width="0.5" stroke-miterlimit="10"/>
<path d="M391.796 337.41L396.232 357.796" stroke="#442116" stroke-width="0.5" stroke-miterlimit="10"/>
<path d="M59.2757 323.08L55.5601 339.606L60.5 341L51 385.5" stroke="#442116" stroke-miterlimit="10"/>
<path d="M241.596 321.516C241.596 321.516 365.753 343.155 440.731 321.516" stroke="#442116" stroke-miterlimit="10"/>
<path d="M265.737 346.578L267.166 338.762L271.79 339.608L271.6 340.647L268.206 340.026L267.77 342.413L270.655 342.94L270.466 343.969L267.582 343.441L266.967 346.803L265.737 346.578Z" fill="#462002"/>
<path d="M261.477 345.941C260.247 345.716 259.541 345.083 259.128 344.405L259.865 343.729C260.236 344.279 260.747 344.778 261.553 344.925C262.433 345.086 263.125 344.719 263.265 343.956C263.418 343.118 262.965 342.476 261.205 342.154L261.37 341.253C262.908 341.534 263.519 341.065 263.653 340.334C263.777 339.655 263.397 339.158 262.655 339.022C262.05 338.912 261.487 339.115 260.96 339.479L260.463 338.599C261.181 338.15 261.974 337.889 262.876 338.054C264.275 338.31 265.13 339.212 264.901 340.463C264.74 341.343 264.114 341.832 263.23 341.988L263.22 342.041C264.081 342.428 264.671 343.216 264.483 344.245C264.233 345.613 262.909 346.203 261.477 345.941Z" fill="#462002"/>
<path d="M250.883 341.599L249.821 341.841C249.344 340.69 248.694 339.618 247.893 338.664C249.072 338.28 250.187 337.722 251.201 337.008L251.99 337.794C251.461 338.209 250.874 338.544 250.247 338.787L257.401 340.863L257.094 341.91L249.941 339.834C250.336 340.377 250.652 340.975 250.878 341.608" fill="#462002"/>
<path d="M558.08 376.336C554.456 376.336 552.056 373.168 552.056 367.048C552.056 360.904 554.456 357.904 558.08 357.904C561.704 357.904 564.08 360.928 564.08 367.048C564.08 373.168 561.704 376.336 558.08 376.336ZM558.08 373.576C559.616 373.576 560.744 372.04 560.744 367.048C560.744 362.08 559.616 360.64 558.08 360.64C556.544 360.64 555.392 362.08 555.392 367.048C555.392 372.04 556.544 373.576 558.08 373.576ZM567.101 376V373.144H570.917V361.912H567.701V359.728C569.477 359.392 570.701 358.936 571.829 358.216H574.445V373.144H577.781V376H567.101Z" fill="white"/>
</svg>
