<svg width="161" height="161" viewBox="0 0 161 161" fill="none" xmlns="http://www.w3.org/2000/svg">
<g filter="url(#filter0_i_1107_2507)">
<path fill-rule="evenodd" clip-rule="evenodd" d="M110.941 154.419C151.79 137.582 171.256 90.8187 154.419 49.9697C137.583 9.12071 90.819 -10.345 49.97 6.4918C9.12099 23.3286 -10.3447 70.0922 6.49209 110.941C23.3289 151.79 70.0925 171.256 110.941 154.419ZM38.341 85.1882C33.7355 69.6702 48.9235 51.474 72.2608 44.5479L72.259 44.5417C95.5963 37.6156 118.252 44.5805 122.856 60.0955C124.376 65.2178 123.703 70.6318 121.326 75.8363C115.234 70.8287 104.979 69.2523 94.2929 72.4237C79.4074 76.8414 70.189 88.4982 73.2963 98.9681C73.7549 100.481 74.4588 101.909 75.3799 103.195C75.1751 103.21 74.9693 103.228 74.7633 103.246C74.4243 103.276 74.085 103.307 73.7492 103.323C67.6329 114.797 55.4842 119.296 55.4842 119.296C59.4647 113.25 60.7118 107.383 60.7327 102.408C49.5345 100.131 40.9757 94.0659 38.341 85.1882ZM95.1986 75.509C108.159 71.6627 120.722 75.532 123.278 84.1412C124.74 89.0691 122.593 94.4839 118.077 98.9299C119.595 101.236 121.948 103.59 125.625 105.198C125.625 105.198 118.619 106.784 112.302 103.293C109.949 104.676 107.324 105.845 104.461 106.695C91.5098 110.538 78.9367 106.672 76.3816 98.0625C73.8266 89.4533 82.2539 79.3508 95.1986 75.509Z" fill="url(#paint0_linear_1107_2507)" fill-opacity="0.4"/>
</g>
<defs>
<filter id="filter0_i_1107_2507" x="0.43457" y="0.434448" width="160.042" height="164.042" filterUnits="userSpaceOnUse" color-interpolation-filters="sRGB">
<feFlood flood-opacity="0" result="BackgroundImageFix"/>
<feBlend mode="normal" in="SourceGraphic" in2="BackgroundImageFix" result="shape"/>
<feColorMatrix in="SourceAlpha" type="matrix" values="0 0 0 0 0 0 0 0 0 0 0 0 0 0 0 0 0 0 127 0" result="hardAlpha"/>
<feOffset dy="4"/>
<feGaussianBlur stdDeviation="2"/>
<feComposite in2="hardAlpha" operator="arithmetic" k2="-1" k3="1"/>
<feColorMatrix type="matrix" values="0 0 0 0 0 0 0 0 0 0 0 0 0 0 0 0 0 0 0.15 0"/>
<feBlend mode="normal" in2="shape" result="effect1_innerShadow_1107_2507"/>
</filter>
<linearGradient id="paint0_linear_1107_2507" x1="45.6397" y1="153.545" x2="166.931" y2="58.959" gradientUnits="userSpaceOnUse">
<stop stop-color="#946E34" stop-opacity="0.85"/>
<stop offset="0.593656" stop-color="#385AAC" stop-opacity="0.2"/>
<stop offset="0.87243" stop-color="#FFD287" stop-opacity="0.3"/>
<stop offset="1" stop-color="#F8F3E8" stop-opacity="0.53"/>
</linearGradient>
</defs>
</svg>
