<svg width="75" height="77" viewBox="0 0 75 77" fill="none" xmlns="http://www.w3.org/2000/svg">
<g id="mingcute:bus-2-line" clip-path="url(#clip0_1686_7625)">
<g id="Group">
<path id="Vector" fill-rule="evenodd" clip-rule="evenodd" d="M59.1562 16.0417C60.594 16.0414 62.0126 16.3807 63.3023 17.0333C64.5919 17.6859 65.7181 18.6342 66.5938 19.805L66.9563 20.328L70.3 25.4774C71.1967 26.8576 71.7306 28.4524 71.85 30.107L71.875 30.8193V51.3333C71.8755 52.9522 71.28 54.5114 70.2078 55.6984C69.1357 56.8855 67.6661 57.6126 66.0938 57.734L65.625 57.75H65.0938C64.4637 59.5797 63.3099 61.1712 61.7835 62.3159C60.2572 63.4605 58.4295 64.105 56.5402 64.1646C54.6508 64.2243 52.788 63.6964 51.196 62.6502C49.604 61.604 48.3571 60.0883 47.6188 58.3018L47.4062 57.75H27.5906C26.9601 59.5787 25.8062 61.1691 24.2801 62.313C22.7541 63.4569 20.9271 64.1009 19.0385 64.1605C17.1499 64.2202 15.2878 63.6927 13.6962 62.6473C12.1045 61.6019 10.8576 60.0873 10.1187 58.3018L9.90625 57.75H9.375C7.7982 57.7505 6.27948 57.1391 5.12329 56.0384C3.9671 54.9376 3.25889 53.4289 3.14062 51.8146L3.125 51.3333V25.6667C3.12487 23.2116 4.03852 20.8493 5.67901 19.0631C7.31951 17.2769 9.56283 16.2017 11.95 16.0577L12.5 16.0417H59.1562ZM56.25 51.3333C55.4212 51.3333 54.6263 51.6714 54.0403 52.273C53.4542 52.8747 53.125 53.6908 53.125 54.5417C53.125 55.3926 53.4542 56.2086 54.0403 56.8103C54.6263 57.412 55.4212 57.75 56.25 57.75C57.0788 57.75 57.8737 57.412 58.4597 56.8103C59.0458 56.2086 59.375 55.3926 59.375 54.5417C59.375 53.6908 59.0458 52.8747 58.4597 52.273C57.8737 51.6714 57.0788 51.3333 56.25 51.3333ZM18.75 51.3333C17.9212 51.3333 17.1263 51.6714 16.5403 52.273C15.9542 52.8747 15.625 53.6908 15.625 54.5417C15.625 55.3926 15.9542 56.2086 16.5403 56.8103C17.1263 57.412 17.9212 57.75 18.75 57.75C19.5788 57.75 20.3737 57.412 20.9597 56.8103C21.5458 56.2086 21.875 55.3926 21.875 54.5417C21.875 53.6908 21.5458 52.8747 20.9597 52.273C20.3737 51.6714 19.5788 51.3333 18.75 51.3333ZM50.8375 38.5H9.375V51.3333H9.90625C10.5519 49.4548 11.7492 47.828 13.3331 46.6774C14.9171 45.5267 16.8096 44.9088 18.75 44.9088C20.6904 44.9088 22.5829 45.5267 24.1669 46.6774C25.7508 47.828 26.9481 49.4548 27.5938 51.3333H47.4062C48.0519 49.4548 49.2492 47.828 50.8331 46.6774C52.4171 45.5267 54.3096 44.9088 56.25 44.9088C58.1904 44.9088 60.0829 45.5267 61.6669 46.6774C63.2508 47.828 64.4481 49.4548 65.0938 51.3333H65.625V41.7083H56.25C55.1529 41.7083 54.0752 41.4118 53.1251 40.8486C52.175 40.2855 51.386 39.4754 50.8375 38.5ZM59.1562 22.4583H56.25V35.2917H65.625V30.8193C65.6251 30.1855 65.4425 29.5659 65.1 29.0386L61.7562 23.886C61.4708 23.4468 61.0841 23.0866 60.6306 22.8376C60.177 22.5885 59.6706 22.4583 59.1562 22.4583ZM18.75 22.4583H12.5C11.7346 22.4584 10.9958 22.7469 10.4238 23.2691C9.85185 23.7913 9.48643 24.5109 9.39687 25.2913L9.375 25.6667V32.0833H18.75V22.4583ZM34.375 22.4583H25V32.0833H34.375V22.4583ZM50 22.4583H40.625V32.0833H50V22.4583Z" fill="#B1884C"/>
</g>
</g>
<defs>
<clipPath id="clip0_1686_7625">
<rect width="75" height="77" fill="white"/>
</clipPath>
</defs>
</svg>
