<svg width="23" height="23" viewBox="0 0 23 23" fill="none" xmlns="http://www.w3.org/2000/svg">
<g id="fluent:person-walking-20-filled">
<path id="Vector" d="M12.6505 6.9C13.2605 6.9 13.8455 6.65768 14.2769 6.22635C14.7082 5.79502 14.9505 5.21 14.9505 4.6C14.9505 3.99001 14.7082 3.40499 14.2769 2.97366C13.8455 2.54232 13.2605 2.3 12.6505 2.3C12.0405 2.3 11.4555 2.54232 11.0242 2.97366C10.5929 3.40499 10.3505 3.99001 10.3505 4.6C10.3505 5.21 10.5929 5.79502 11.0242 6.22635C11.4555 6.65768 12.0405 6.9 12.6505 6.9ZM9.75598 7.1116C10.0573 7.05065 10.3505 7.1898 10.5966 7.37265C11.0369 7.69908 11.5486 7.91588 12.0894 8.00507C12.6302 8.09427 13.1844 8.0533 13.7062 7.88555C13.896 7.8246 14.0972 7.78665 14.2893 7.83265C14.8263 7.96145 15.3151 8.25815 15.675 8.6917L17.124 10.4259C17.1928 10.5081 17.2833 10.5695 17.3851 10.603L18.565 10.994C18.9196 11.1195 19.2109 11.3789 19.3764 11.7166C19.5419 12.0544 19.5684 12.4436 19.4503 12.8007C19.3322 13.1578 19.0788 13.4543 18.7445 13.6267C18.4102 13.7992 18.0217 13.8337 17.6622 13.723L15.9372 13.1526C15.6827 13.0683 15.4569 12.9145 15.2852 12.7087L14.7205 12.0325C14.6549 11.9539 14.5694 11.8943 14.473 11.8599C14.3766 11.8254 14.2727 11.8173 14.1721 11.8364C14.0716 11.8556 13.9779 11.9012 13.9009 11.9686C13.8238 12.036 13.7661 12.1228 13.7338 12.2199L13.5613 12.734C13.5339 12.8168 13.5256 12.9047 13.5371 12.9912C13.5487 13.0777 13.5798 13.1604 13.628 13.2331L14.839 15.0662C15.0747 15.4227 15.2185 15.8321 15.2576 16.2576L15.5186 19.1326C15.5357 19.3206 15.5156 19.5101 15.4594 19.6904C15.4032 19.8706 15.3121 20.038 15.1912 20.183C15.0703 20.328 14.922 20.4478 14.7548 20.5355C14.5877 20.6233 14.4049 20.6772 14.2168 20.6943C14.0288 20.7113 13.8393 20.6912 13.659 20.635C13.4788 20.5788 13.3114 20.4877 13.1664 20.3668C13.0214 20.2459 12.9016 20.0976 12.8139 19.9305C12.7261 19.7633 12.6722 19.5805 12.6551 19.3925L12.4136 16.7348C12.4052 16.6404 12.3736 16.5495 12.3216 16.4703L11.489 15.2111C11.432 15.1248 11.3528 15.0556 11.2598 15.0106C11.1667 14.9656 11.0633 14.9465 10.9603 14.9553C10.8573 14.9641 10.7586 15.0005 10.6746 15.0607C10.5905 15.1209 10.5243 15.2026 10.4828 15.2973L8.50478 19.8364C8.43316 20.0148 8.32645 20.1771 8.19098 20.3136C8.05551 20.4501 7.89404 20.558 7.71611 20.631C7.53819 20.7039 7.34743 20.7404 7.15514 20.7383C6.96285 20.7363 6.77293 20.6956 6.59662 20.6188C6.42032 20.542 6.26122 20.4306 6.12874 20.2912C5.99626 20.1518 5.8931 19.9873 5.82536 19.8073C5.75762 19.6273 5.72668 19.4356 5.73437 19.2434C5.74206 19.0513 5.78823 18.8626 5.87013 18.6887L9.15108 11.155C9.19381 11.057 9.20836 10.949 9.1931 10.8431C9.17783 10.7373 9.13335 10.6378 9.06466 10.5559C8.99597 10.4739 8.90578 10.4127 8.80424 10.3792C8.7027 10.3457 8.59382 10.3412 8.48983 10.3661L8.35183 10.3995C8.30868 10.4097 8.26848 10.4297 8.23436 10.458C8.20025 10.4864 8.17315 10.5222 8.15518 10.5628L7.57673 11.8646L7.56178 11.8968L7.05003 12.9778C6.96916 13.1484 6.85547 13.3015 6.71545 13.4282C6.57543 13.5549 6.41182 13.6528 6.23397 13.7163C5.87477 13.8445 5.47936 13.8248 5.13471 13.6614C4.79006 13.4981 4.52441 13.2046 4.39619 12.8454C4.26798 12.4862 4.28771 12.0908 4.45103 11.7461L4.95703 10.6812L5.52743 9.3955C5.72476 8.95063 6.02209 8.55731 6.39628 8.24615C6.77048 7.93498 7.21144 7.71438 7.68483 7.6015L9.66858 7.13L9.75598 7.1116Z" fill="#462002"/>
</g>
</svg>
