<svg width="161" height="161" viewBox="0 0 161 161" fill="none" xmlns="http://www.w3.org/2000/svg">
<g filter="url(#filter0_i_1065_2496)">
<path fill-rule="evenodd" clip-rule="evenodd" d="M102.829 157.149C60.4724 169.719 15.9448 145.573 3.37405 103.216C-9.19672 60.8597 14.9496 16.3322 57.3063 3.76139C99.6631 -8.80938 144.191 15.3369 156.761 57.6937C169.332 100.05 145.186 144.578 102.829 157.149ZM130.058 59.5876C129.078 55.7169 126.921 52.4562 123.205 50.2639L123.205 50.2636C123.085 50.193 122.963 50.1215 122.84 50.0529C119.227 60.0696 112.168 65.1642 103.82 67.2395C95.1084 69.4046 85.0082 68.6162 75.0509 67.839C74.8398 67.8225 74.6287 67.806 74.4177 67.7896C64.2562 66.9977 54.2708 66.2874 46.3973 68.3405C41.4762 69.6241 37.3651 71.8477 34.2871 75.8909C34.2694 75.9144 34.2519 75.9382 34.2343 75.9621C34.2202 75.9813 34.2061 76.0005 34.1919 76.0194C34.1746 76.0434 34.1571 76.0674 34.1397 76.0914C34.1101 76.132 34.0805 76.1727 34.0515 76.2137C33.4669 77.0407 32.9344 77.8946 32.4507 78.7663C32.4244 78.8137 32.3987 78.8611 32.3729 78.9086C32.3599 78.9326 32.3468 78.9567 32.3337 78.9808C31.375 80.8054 30.5613 82.9016 29.9114 85.3261C28.0052 92.441 29.2779 97.932 32.148 102.048C35.018 106.164 39.6047 108.905 44.4495 109.997C48.2347 110.85 52.1344 110.682 55.4169 109.495C55.5336 109.453 55.6521 109.41 55.7668 109.365C55.781 109.36 55.7954 109.355 55.8098 109.35C55.8254 109.344 55.8411 109.338 55.8565 109.332C56.6051 109.036 57.3271 108.677 58.0144 108.258C58.1077 108.201 58.2011 108.139 58.293 108.08C58.272 108.04 58.2499 108 58.2292 107.959L59.1331 107.493C62.1933 105.184 64.1948 101.581 64.1948 96.0992C64.1949 88.6533 60.0229 85.0725 56.163 84.5291C54.2333 84.2574 52.3973 84.752 51.0077 85.9957C49.6177 87.2394 48.5771 89.2888 48.5519 92.5331C48.5282 95.5742 50.5728 97.3728 52.1496 97.6993C52.9378 97.8626 53.477 97.7209 53.8968 97.3116C54.316 96.9021 54.7725 96.009 54.6633 94.1507L58.3076 93.9342C58.4573 96.4912 57.8146 98.5859 56.4431 99.9245C55.0713 101.263 53.1277 101.632 51.4036 101.275C47.9555 100.561 44.8641 97.1811 44.9004 92.5057C44.932 88.4596 46.3302 85.2717 48.5688 83.2691C50.8073 81.2662 53.7902 80.5097 56.6702 80.9149C62.4297 81.7257 67.8476 87.2229 67.8479 96.0995C67.8478 101.57 65.9645 105.918 62.9942 108.94C69.9007 119.802 82.2362 124.905 92.8062 125.002C98.5031 125.055 103.619 123.631 106.993 121.098C109.72 119.051 111.398 116.398 111.603 112.856C103.694 114.937 94.8985 113.993 87.2981 108.084L89.5427 105.198C99.9892 113.319 112.794 110.727 121.534 103.9C125.905 100.487 129.158 96.025 130.48 91.4964C131.573 87.7523 131.42 84.0115 129.543 80.4759C123.792 89.8483 113.126 96.929 99.7215 95.0792L100.223 91.4616C113.924 93.3523 124.129 84.8224 128.447 74.6663C130.606 69.5883 131.215 64.1536 130.058 59.5876Z" fill="url(#paint0_linear_1065_2496)" fill-opacity="0.4"/>
</g>
<defs>
<filter id="filter0_i_1065_2496" x="0.046875" y="0.434082" width="160.042" height="164.042" filterUnits="userSpaceOnUse" color-interpolation-filters="sRGB">
<feFlood flood-opacity="0" result="BackgroundImageFix"/>
<feBlend mode="normal" in="SourceGraphic" in2="BackgroundImageFix" result="shape"/>
<feColorMatrix in="SourceAlpha" type="matrix" values="0 0 0 0 0 0 0 0 0 0 0 0 0 0 0 0 0 0 127 0" result="hardAlpha"/>
<feOffset dy="4"/>
<feGaussianBlur stdDeviation="2"/>
<feComposite in2="hardAlpha" operator="arithmetic" k2="-1" k3="1"/>
<feColorMatrix type="matrix" values="0 0 0 0 0 0 0 0 0 0 0 0 0 0 0 0 0 0 0.15 0"/>
<feBlend mode="normal" in2="shape" result="effect1_innerShadow_1065_2496"/>
</filter>
<linearGradient id="paint0_linear_1065_2496" x1="153.079" y1="115.435" x2="-0.710212" y2="118.071" gradientUnits="userSpaceOnUse">
<stop stop-color="#946E34" stop-opacity="0.85"/>
<stop offset="0.593656" stop-color="#385AAC" stop-opacity="0.2"/>
<stop offset="0.87243" stop-color="#FFD287" stop-opacity="0.3"/>
<stop offset="1" stop-color="#F8F3E8" stop-opacity="0.53"/>
</linearGradient>
</defs>
</svg>
