<svg width="62" height="62" viewBox="0 0 62 62" fill="none" xmlns="http://www.w3.org/2000/svg">
<g id="jam:bus">
<path id="Vector" d="M38.7507 49.0833H23.2507V54.25C23.2507 54.9351 22.9785 55.5922 22.494 56.0767C22.0095 56.5612 21.3525 56.8333 20.6673 56.8333H18.084C17.3988 56.8333 16.7418 56.5612 16.2573 56.0767C15.7728 55.5922 15.5007 54.9351 15.5007 54.25V47.7013C13.9291 46.7945 12.6241 45.4898 11.7171 43.9184C10.8101 42.347 10.3331 40.5644 10.334 38.75V15.5C10.334 12.7594 11.4227 10.1311 13.3605 8.19323C15.2984 6.25535 17.9267 5.16667 20.6673 5.16667L41.334 5.16667C44.0746 5.16667 46.7029 6.25535 48.6408 8.19323C50.5786 10.1311 51.6673 12.7594 51.6673 15.5V38.75C51.6673 42.5733 49.5903 45.9136 46.5007 47.7013V54.25C46.5007 54.9351 46.2285 55.5922 45.744 56.0767C45.2595 56.5612 44.6025 56.8333 43.9173 56.8333H41.334C40.6488 56.8333 39.9918 56.5612 39.5073 56.0767C39.0228 55.5922 38.7507 54.9351 38.7507 54.25V49.0833ZM46.5007 28.4167V15.5C46.5007 14.1297 45.9563 12.8156 44.9874 11.8466C44.0184 10.8777 42.7043 10.3333 41.334 10.3333H20.6673C19.297 10.3333 17.9829 10.8777 17.0139 11.8466C16.045 12.8156 15.5007 14.1297 15.5007 15.5V28.4167H46.5007ZM46.5007 33.5833H15.5007V38.75C15.5007 40.1203 16.045 41.4344 17.0139 42.4034C17.9829 43.3723 19.297 43.9167 20.6673 43.9167H41.334C42.7043 43.9167 44.0184 43.3723 44.9874 42.4034C45.9563 41.4344 46.5007 40.1203 46.5007 38.75V33.5833ZM20.6673 12.9167C21.3525 12.9167 22.0095 13.1888 22.494 13.6733C22.9785 14.1578 23.2507 14.8149 23.2507 15.5V23.25C23.2507 23.9351 22.9785 24.5922 22.494 25.0767C22.0095 25.5612 21.3525 25.8333 20.6673 25.8333C19.9822 25.8333 19.3251 25.5612 18.8406 25.0767C18.3562 24.5922 18.084 23.9351 18.084 23.25V15.5C18.084 14.8149 18.3562 14.1578 18.8406 13.6733C19.3251 13.1888 19.9822 12.9167 20.6673 12.9167ZM20.6673 41.3333C19.9822 41.3333 19.3251 41.0612 18.8406 40.5767C18.3562 40.0922 18.084 39.4351 18.084 38.75C18.084 38.0649 18.3562 37.4078 18.8406 36.9233C19.3251 36.4388 19.9822 36.1667 20.6673 36.1667C21.3525 36.1667 22.0095 36.4388 22.494 36.9233C22.9785 37.4078 23.2507 38.0649 23.2507 38.75C23.2507 39.4351 22.9785 40.0922 22.494 40.5767C22.0095 41.0612 21.3525 41.3333 20.6673 41.3333ZM41.334 41.3333C40.6488 41.3333 39.9918 41.0612 39.5073 40.5767C39.0228 40.0922 38.7507 39.4351 38.7507 38.75C38.7507 38.0649 39.0228 37.4078 39.5073 36.9233C39.9918 36.4388 40.6488 36.1667 41.334 36.1667C42.0191 36.1667 42.6762 36.4388 43.1607 36.9233C43.6451 37.4078 43.9173 38.0649 43.9173 38.75C43.9173 39.4351 43.6451 40.0922 43.1607 40.5767C42.6762 41.0612 42.0191 41.3333 41.334 41.3333Z" fill="#B1884C"/>
</g>
</svg>
