<svg width="63" height="49" viewBox="0 0 63 49" fill="none" xmlns="http://www.w3.org/2000/svg">
<path id="Vector" d="M43.3118 0C45.0294 5.39907e-05 46.713 0.442508 48.1741 1.2778C49.6352 2.11309 50.8161 3.30822 51.5844 4.72932L55.8487 12.6163C56.601 12.331 57.3502 12.0429 58.0779 11.7092C58.8098 11.371 59.6569 11.3157 60.4329 11.5553C61.2089 11.795 61.8502 12.31 62.2157 12.9871C62.5813 13.6642 62.6411 14.4478 62.382 15.1657C62.123 15.8836 61.5663 16.4769 60.8344 16.815C59.3112 17.5167 58.6144 17.7335 58.6144 17.7335L61.5621 23.1902C62.2065 24.3797 62.5395 25.6889 62.5395 27.0182V34.2291C62.5414 35.4333 62.2676 36.6243 61.7362 37.7236C61.2048 38.8229 60.4277 39.8056 59.4562 40.6071V44.2126C59.4562 45.3473 58.9689 46.4356 58.1015 47.238C57.2342 48.0404 56.0578 48.4912 54.8312 48.4912C53.6045 48.4912 52.4281 48.0404 51.5608 47.238C50.6934 46.4356 50.2062 45.3473 50.2062 44.2126V42.7863H13.2062V44.2126C13.2062 45.3473 12.7189 46.4356 11.8515 47.238C10.9842 48.0404 9.80778 48.4912 8.58116 48.4912C7.35453 48.4912 6.17815 48.0404 5.31079 47.238C4.44343 46.4356 3.95616 45.3473 3.95616 44.2126V40.6071C2.06299 39.0383 0.872825 36.762 0.872825 34.2291V27.0182C0.873401 25.6902 1.20803 24.3807 1.85024 23.1931L4.79791 17.7335C4.05109 17.447 3.31287 17.1417 2.58407 16.8179C2.22064 16.6511 1.89636 16.4196 1.62983 16.1366C1.36329 15.8536 1.15974 15.5248 1.03085 15.1689C0.90195 14.813 0.85024 14.4371 0.878678 14.0627C0.907117 13.6883 1.01515 13.3228 1.19657 12.9871C1.57018 12.3135 2.21511 11.8029 2.99215 11.5654C3.76919 11.3279 4.61602 11.3826 5.34982 11.7178C6.07441 12.0429 6.81749 12.3367 7.56366 12.6163L11.8279 4.72932C12.5962 3.30822 13.7771 2.11309 15.2382 1.2778C16.6993 0.442508 18.3829 5.39907e-05 20.1005 0H43.3118ZM52.7777 19.6931C47.536 21.2249 40.0774 22.8194 31.7062 22.8194C23.3349 22.8194 15.8763 21.222 10.6347 19.6931L7.36632 25.7403C7.15143 26.1369 7.03952 26.5745 7.03949 27.0182V34.2291C7.03949 34.9856 7.36434 35.7111 7.94258 36.246C8.52082 36.781 9.30507 37.0815 10.1228 37.0815H53.2895C54.1072 37.0815 54.8915 36.781 55.4697 36.246C56.048 35.7111 56.3728 34.9856 56.3728 34.2291V27.0182C56.3723 26.5754 56.2604 26.1389 56.046 25.7431L52.7777 19.6931ZM17.8312 25.6718C19.0578 25.6718 20.2342 26.1226 21.1015 26.925C21.9689 27.7274 22.4562 28.8157 22.4562 29.9504C22.4562 31.0852 21.9689 32.1735 21.1015 32.9759C20.2342 33.7783 19.0578 34.2291 17.8312 34.2291C16.6045 34.2291 15.4281 33.7783 14.5608 32.9759C13.6934 32.1735 13.2062 31.0852 13.2062 29.9504C13.2062 28.8157 13.6934 27.7274 14.5608 26.925C15.4281 26.1226 16.6045 25.6718 17.8312 25.6718ZM45.5812 25.6718C46.8078 25.6718 47.9842 26.1226 48.8515 26.925C49.7189 27.7274 50.2062 28.8157 50.2062 29.9504C50.2062 31.0852 49.7189 32.1735 48.8515 32.9759C47.9842 33.7783 46.8078 34.2291 45.5812 34.2291C44.3545 34.2291 43.1781 33.7783 42.3108 32.9759C41.4434 32.1735 40.9562 31.0852 40.9562 29.9504C40.9562 28.8157 41.4434 27.7274 42.3108 26.925C43.1781 26.1226 44.3545 25.6718 45.5812 25.6718ZM43.3118 5.70485H20.1005C19.528 5.70513 18.967 5.85284 18.4801 6.13143C17.9933 6.41003 17.5999 6.8085 17.344 7.28224L13.4282 14.5188C18.2012 15.8452 24.633 17.1145 31.7062 17.1145C38.7793 17.1145 45.2112 15.8452 49.9811 14.5188L46.0683 7.28224C45.8124 6.8085 45.419 6.41003 44.9322 6.13143C44.4454 5.85284 43.8843 5.70513 43.3118 5.70485Z" fill="#B1884C"/>
</svg>
