<svg width="896" height="896" viewBox="0 0 896 896" fill="none" xmlns="http://www.w3.org/2000/svg">
<path d="M842.248 462.655C842.429 457.458 844.581 452.434 848.297 448.817L853.444 453.419C850.804 456.032 849.012 459.664 848.895 463.042C848.756 467.044 850.399 469.182 853.049 469.274C855.907 469.374 856.924 467.068 858.498 463.688L860.86 458.619C862.553 454.828 865.86 450.988 871.42 451.182C877.709 451.4 882.349 457.129 882.079 464.872C881.924 469.341 880.002 473.749 876.723 476.757L872.024 472.743C874.137 470.319 875.369 467.813 875.479 464.643C875.597 461.265 874.164 459.082 871.669 458.995C868.915 458.899 867.78 461.617 866.367 464.846L864.113 469.815C862.029 474.373 858.909 477.335 853.4 477.143C847.112 476.925 841.941 471.49 842.248 462.655Z" fill="#385aac"/>
<path d="M841.881 481.253L880.196 484.809L879.485 492.473L841.169 488.916L841.881 481.253Z" fill="#385aac"/>
<path d="M839.236 504.573L870.958 509.373L872.585 498.628L878.909 499.585L874.505 528.685L868.181 527.728L869.807 516.983L838.084 512.182L839.236 504.573Z" fill="#385aac"/>
<path d="M831.538 540.889C833.722 531.413 842.277 525.328 854.792 528.214C867.156 531.065 872.528 540.628 870.332 550.155C869.233 554.918 866.128 558.204 863.033 560.052L859.131 554.989C861.45 553.496 863.207 551.66 863.873 548.772C865.17 543.148 861.287 537.77 853.281 535.924C845.073 534.031 839.332 536.709 837.953 542.688C837.217 545.881 838.153 548.765 839.876 551.243L834.253 554.109C831.368 550.188 830.416 545.753 831.538 540.889Z" fill="#385aac"/>
<path d="M823.341 569.852C826.466 560.097 835.822 555.777 847.757 559.601C859.691 563.424 864.448 572.265 861.323 582.021C858.213 591.727 849.155 596.142 837.27 592.334C825.335 588.51 820.231 579.558 823.341 569.852ZM829.679 571.883C827.934 577.33 831.825 582.399 839.649 584.906C847.474 587.412 853.289 585.453 855.034 580.006C856.795 574.509 853.185 569.585 845.361 567.078C837.537 564.572 831.44 566.386 829.679 571.883Z" fill="#385aac"/>
<path d="M817.325 589.694L852.765 604.684L849.726 611.868L826.454 614.163L817.272 614.514L817.171 614.754C821.02 615.93 826.005 617.361 830.028 619.063L844.156 625.038L841.3 631.791L805.859 616.801L808.918 609.569L832.218 607.342L841.305 606.951L841.406 606.711C837.481 605.446 832.784 604.137 828.665 602.395L814.489 596.399L817.325 589.694Z" fill="#385aac"/>
<path d="M798.659 630.927L802.468 633.065C805.534 646.832 808.834 655.72 814.003 658.622C817.359 660.505 820.437 659.908 822.244 656.688C823.644 654.194 823.152 651.354 822.214 648.562L827.904 646.925C829.483 651.866 829.546 655.897 826.976 660.477C823.438 666.78 817.009 668.777 810.752 665.265C804.63 661.829 800.951 653.085 798.402 643.604C797.641 645.383 796.621 647.732 795.73 649.319L791.658 656.575L786.035 653.419L798.659 630.927Z" fill="#385aac"/>
<path d="M777.204 665.511C781.515 658.948 790.064 658.343 801.189 665.653C812.271 672.935 814.848 680.85 810.536 687.412C806.253 693.931 797.965 694.708 786.883 687.426C775.758 680.116 772.92 672.029 777.204 665.511ZM782.201 668.794C780.374 671.576 781.813 675.446 790.852 681.385C799.848 687.296 803.798 686.967 805.625 684.186C807.453 681.404 806.216 677.605 797.22 671.694C788.181 665.755 784.029 666.013 782.201 668.794Z" fill="#385aac"/>
<path d="M769.803 677.857L773.278 680.503C774.403 694.562 776.436 703.822 781.153 707.414C784.214 709.745 787.346 709.581 789.583 706.643C791.315 704.368 791.222 701.486 790.681 698.591L796.543 697.76C797.421 702.873 796.923 706.873 793.742 711.052C789.363 716.803 782.72 717.888 777.01 713.54C771.425 709.288 768.996 700.118 767.788 690.374C766.788 692.031 765.451 694.216 764.348 695.664L759.308 702.283L754.178 698.377L769.803 677.857Z" fill="#385aac"/>
<path d="M742.953 711.159L760.741 726.76C762.422 728.234 764.904 730.688 766.555 732.275L766.693 732.118C765.78 730.004 764.863 727.816 764.019 725.624L760.735 714.858L747.123 730.379L742.705 726.504L761.22 705.393L765.169 708.856L773.254 734.968L767.185 741.888L738.255 716.515L742.953 711.159Z" fill="#385aac"/>
<path d="M677.384 769.085C681.6 766.041 686.888 764.661 692.024 765.379L691.545 772.266C687.861 771.783 683.893 772.595 681.153 774.573C677.906 776.917 677.224 779.525 678.776 781.676C680.45 783.995 682.895 783.384 686.53 782.556L691.983 781.313C696.016 780.326 701.077 780.585 704.333 785.096C708.016 790.198 706.335 797.376 700.053 801.911C696.427 804.528 691.766 805.712 687.38 804.966L687.669 798.793C690.88 798.976 693.616 798.413 696.188 796.556C698.928 794.578 699.774 792.107 698.313 790.083C696.7 787.849 693.857 788.619 690.44 789.482L685.133 790.748C680.254 791.896 676.001 791.247 672.775 786.777C669.092 781.676 670.216 774.259 677.384 769.085Z" fill="#385aac"/>
<path d="M662.698 779.998L683.355 812.464L676.862 816.595L656.205 784.13L662.698 779.998Z" fill="#385aac"/>
<path d="M642.79 792.082L658.494 820.06L667.972 814.741L671.102 820.318L645.437 834.724L642.306 829.147L651.783 823.827L636.079 795.849L642.79 792.082Z" fill="#385aac"/>
<path d="M609.202 808.322C618.026 804.236 628.079 807.259 633.477 818.914C638.809 830.427 634.55 840.537 625.679 844.645C621.244 846.699 616.744 846.261 613.386 844.951L614.991 838.764C617.592 839.679 620.12 839.941 622.81 838.696C628.048 836.27 629.913 829.905 626.461 822.449C622.921 814.805 617.284 811.914 611.716 814.493C608.744 815.869 607.04 818.378 606.139 821.259L600.427 818.575C601.753 813.892 604.673 810.42 609.202 808.322Z" fill="#385aac"/>
<path d="M580.739 819.754C590.37 816.263 599.508 821.026 603.778 832.808C608.048 844.591 603.96 853.76 594.329 857.251C584.747 860.724 575.715 856.254 571.463 844.52C567.193 832.738 571.157 823.226 580.739 819.754ZM583.007 826.011C577.629 827.96 575.997 834.138 578.796 841.863C581.596 849.587 586.701 852.991 592.079 851.042C597.505 849.075 599.196 843.208 596.396 835.484C593.597 827.76 588.434 824.044 583.007 826.011Z" fill="#385aac"/>
<path d="M561.387 827.103L571.169 864.319L563.626 866.302L547.591 849.279L541.704 842.224L541.453 842.29C542.873 846.056 544.785 850.877 545.896 855.101L549.795 869.937L542.704 871.801L532.922 834.585L540.516 832.589L556.513 849.676L562.374 856.63L562.625 856.564C561.229 852.684 559.396 848.165 558.259 843.84L554.346 828.954L561.387 827.103Z" fill="#385aac"/>
<path d="M517.625 837.463L518.262 841.784C509.243 852.627 504.226 860.673 505.091 866.537C505.652 870.344 508.007 872.415 511.659 871.876C514.489 871.459 516.436 869.333 518.072 866.884L522.846 870.385C519.901 874.656 516.75 877.171 511.554 877.937C504.403 878.991 498.893 875.125 497.846 868.026C496.823 861.081 501.492 852.823 507.436 845.009C505.563 845.495 503.08 846.124 501.28 846.39L493.049 847.603L492.108 841.224L517.625 837.463Z" fill="#385aac"/>
<path d="M477.273 841.621C485.102 841.016 490.811 847.407 491.837 860.679C492.859 873.9 488.175 880.781 480.347 881.387C472.57 881.988 466.884 875.908 465.863 862.687C464.837 849.415 469.496 842.222 477.273 841.621ZM477.734 847.583C474.416 847.84 472.235 851.346 473.069 862.13C473.899 872.862 476.576 875.785 479.894 875.528C483.212 875.272 485.46 871.969 484.631 861.237C483.797 850.453 481.052 847.327 477.734 847.583Z" fill="#385aac"/>
<path d="M463.072 843.328L463.106 847.696C452.675 857.189 446.595 864.464 446.64 870.392C446.67 874.24 448.717 876.616 452.408 876.587C455.268 876.565 457.49 874.728 459.449 872.529L463.693 876.656C460.187 880.479 456.719 882.534 451.467 882.575C444.239 882.631 439.315 878.04 439.26 870.865C439.206 863.845 444.972 856.312 451.939 849.394C450.016 849.617 447.47 849.897 445.65 849.911L437.331 849.975L437.281 843.527L463.072 843.328Z" fill="#385aac"/>
<path d="M418.725 842.407L417.265 866.022C417.127 868.254 416.705 871.718 416.46 873.995L416.667 874.008C417.782 871.993 418.951 869.929 420.169 867.921L426.676 858.737L406.072 857.463L406.434 851.598L434.461 853.331L434.137 858.573L418.427 880.942L409.24 880.374L411.614 841.968L418.725 842.407Z" fill="#385aac"/>
<path d="M344.81 829.159C349.834 830.5 354.248 833.723 356.94 838.155L351.302 842.14C349.346 838.981 346.208 836.421 342.943 835.549C339.074 834.517 336.622 835.638 335.938 838.201C335.2 840.964 337.22 842.472 340.16 844.764L344.571 848.201C347.886 850.701 350.887 854.785 349.452 860.161C347.829 866.24 341.206 869.477 333.72 867.479C329.4 866.326 325.535 863.464 323.338 859.595L328.303 855.915C330.192 858.518 332.359 860.28 335.423 861.098C338.689 861.97 341.138 861.063 341.782 858.651C342.492 855.989 340.098 854.273 337.268 852.172L332.931 848.862C328.956 845.809 326.769 842.104 328.191 836.779C329.813 830.699 336.269 826.879 344.81 829.159Z" fill="#385aac"/>
<path d="M327.156 824.732L315.139 861.288L307.828 858.885L319.844 822.329L327.156 824.732Z" fill="#385aac"/>
<path d="M305.169 816.965L293.448 846.831L303.565 850.802L301.229 856.756L273.831 846.004L276.167 840.05L286.284 844.02L298.005 814.153L305.169 816.965Z" fill="#385aac"/>
<path d="M271.411 801.266C280.158 805.515 284.175 815.214 278.562 826.767C273.017 838.179 262.494 841.275 253.701 837.003C249.304 834.867 246.796 831.105 245.688 827.675L251.495 825.005C252.431 827.599 253.827 829.722 256.493 831.018C261.685 833.54 267.795 830.959 271.386 823.569C275.067 815.992 273.741 809.798 268.222 807.116C265.275 805.684 262.255 805.951 259.454 807.076L257.919 800.954C262.385 799.019 266.921 799.084 271.411 801.266Z" fill="#385aac"/>
<path d="M244.589 786.496C253.39 791.739 255.491 801.827 249.077 812.594C242.663 823.36 232.978 826.004 224.177 820.761C215.421 815.545 213.16 805.724 219.547 795.002C225.961 784.236 235.833 781.28 244.589 786.496ZM241.183 792.214C236.268 789.287 230.453 791.936 226.248 798.994C222.044 806.053 222.643 812.16 227.557 815.087C232.515 818.041 238.126 815.634 242.331 808.575C246.536 801.517 246.141 795.168 241.183 792.214Z" fill="#385aac"/>
<path d="M226.759 776.227L204.237 807.428L197.913 802.863L200.87 779.665L202.577 770.636L202.366 770.484C200.36 773.974 197.853 778.513 195.296 782.055L186.318 794.493L180.373 790.202L202.895 759.001L209.262 763.597L206.232 786.806L204.586 795.751L204.796 795.903C206.906 792.359 209.23 788.073 211.848 784.447L220.856 771.966L226.759 776.227Z" fill="#385aac"/>
<path d="M191.069 749.043L188.141 752.285C174.037 752.23 164.639 753.482 160.666 757.881C158.087 760.737 157.989 763.871 160.729 766.346C162.851 768.263 165.731 768.411 168.661 768.114L168.999 774.024C163.83 774.472 159.885 773.642 155.988 770.122C150.623 765.277 150.098 758.566 154.907 753.241C159.612 748.031 168.953 746.377 178.764 745.988C177.196 744.853 175.131 743.338 173.78 742.118L167.606 736.542L171.927 731.757L191.069 749.043Z" fill="#385aac"/>
<path d="M162.246 720.584C167.696 726.236 166.402 734.708 156.82 743.948C147.275 753.153 138.986 753.921 133.536 748.269C128.122 742.655 129.191 734.4 138.736 725.195C148.319 715.955 156.832 714.969 162.246 720.584ZM157.941 724.735C155.631 722.339 151.539 722.89 143.753 730.398C136.005 737.87 135.456 741.795 137.766 744.191C140.076 746.586 144.054 746.217 151.803 738.745C159.588 731.237 160.251 727.131 157.941 724.735Z" fill="#385aac"/>
<path d="M151.958 710.73L148.612 713.538C134.65 711.541 125.169 711.487 120.628 715.298C117.68 717.771 117.151 720.862 119.525 723.69C121.363 725.881 124.195 726.424 127.138 726.534L126.659 732.435C121.478 732.166 117.685 730.801 114.309 726.778C109.662 721.241 110.066 714.521 115.563 709.909C120.94 705.396 130.42 705.044 140.19 706.01C138.794 704.669 136.957 702.885 135.787 701.49L130.439 695.117L135.379 690.972L151.958 710.73Z" fill="#385aac"/>
<path d="M125.47 677.277L106.337 691.195C104.528 692.51 101.589 694.392 99.6771 695.654L99.7995 695.822C102.063 695.397 104.399 694.984 106.723 694.644L117.948 693.809L105.804 677.115L110.556 673.658L127.074 696.366L122.826 699.455L95.5755 701.595L90.1612 694.152L121.279 671.516L125.47 677.277Z" fill="#385aac"/>
<path d="M88.3558 611.536C90.5234 616.262 90.8515 621.718 89.1507 626.617L82.487 624.81C83.676 621.29 83.6495 617.241 82.2406 614.168C80.5716 610.529 78.1447 609.354 75.7341 610.459C73.1344 611.651 73.259 614.168 73.3662 617.895L73.5269 623.485C73.7129 627.633 72.477 632.547 67.4194 634.867C61.7001 637.489 54.985 634.448 51.7553 627.405C49.8912 623.34 49.6341 618.538 51.2168 614.38L57.2167 615.862C56.4137 618.976 56.4359 621.769 57.7582 624.652C59.1671 627.724 61.4265 629.034 63.6954 627.993C66.2005 626.844 65.997 623.906 65.8131 620.386L65.6012 614.934C65.421 609.925 66.8836 605.879 71.8939 603.582C77.6131 600.959 84.6709 603.5 88.3558 611.536Z" fill="#385aac"/>
<path d="M80.6779 595.516L44.8574 609.573L42.046 602.409L77.8665 588.352L80.6779 595.516Z" fill="#385aac"/>
<path d="M72.4389 573.092L41.9218 582.996L45.2767 593.334L39.193 595.308L30.1076 567.313L36.1913 565.339L39.5461 575.676L70.0632 565.772L72.4389 573.092Z" fill="#385aac"/>
<path d="M63.1407 537.455C65.4337 546.905 60.5137 556.179 48.0319 559.207C35.7017 562.199 26.6131 556.057 24.3079 546.557C23.1553 541.807 24.4591 537.477 26.3972 534.438L32.1543 537.215C30.7505 539.589 30.0022 542.018 30.7011 544.898C32.0622 550.508 37.9434 553.575 45.9277 551.638C54.1142 549.652 58.0458 544.684 56.5989 538.721C55.8264 535.538 53.6973 533.379 51.0461 531.935L54.7893 526.854C59.1252 529.065 61.9636 532.604 63.1407 537.455Z" fill="#385aac"/>
<path d="M57.4834 507.83C59.055 517.952 52.6218 526.002 40.2382 527.925C27.8545 529.848 19.6431 524.071 18.0716 513.948C16.508 503.877 22.6328 495.875 34.9651 493.96C47.3488 492.037 55.9199 497.758 57.4834 507.83ZM50.9062 508.851C50.0287 503.198 44.2805 500.407 36.1617 501.668C28.043 502.928 23.7199 507.283 24.5974 512.935C25.4829 518.639 30.9149 521.426 39.0336 520.166C47.1523 518.906 51.7917 514.554 50.9062 508.851Z" fill="#385aac"/>
<path d="M54.0025 487.901L15.6052 490.423L15.094 482.64L34.8571 470.138L42.9036 465.701L42.8866 465.441C38.9185 466.119 33.8224 467.079 29.4638 467.365L14.1568 468.371L13.6763 461.054L52.0735 458.532L52.5881 466.368L32.7697 478.821L24.827 483.251L24.844 483.511C28.9194 482.878 33.7041 481.939 38.1664 481.646L53.5254 480.637L54.0025 487.901Z" fill="#385aac"/>
<path d="M52.1324 440.062L47.7699 439.843C38.8964 428.88 31.9852 422.39 26.0647 422.092C22.2215 421.899 19.7308 423.805 19.5457 427.492C19.4023 430.349 21.1079 432.673 23.1901 434.756L18.8241 438.754C15.2102 435.032 13.3594 431.451 13.6228 426.206C13.9852 418.987 18.8525 414.337 26.0195 414.697C33.0306 415.049 40.2172 421.241 46.7205 428.596C46.6093 426.664 46.4774 424.107 46.5686 422.289L46.9858 413.979L53.4257 414.303L52.1324 440.062Z" fill="#385aac"/>
<path d="M55.7056 401.212C54.7997 409.012 47.4332 413.391 34.2101 411.855C21.0387 410.326 15.182 404.41 16.0879 396.611C16.9878 388.863 24.0444 384.448 37.2158 385.977C50.4389 387.513 56.6055 393.464 55.7056 401.212ZM49.7655 400.522C50.1495 397.217 47.1257 394.405 36.3819 393.157C25.6898 391.915 22.3087 393.983 21.9247 397.289C21.5407 400.594 24.3519 403.434 35.0441 404.676C45.7878 405.924 49.3816 403.828 49.7655 400.522Z" fill="#385aac"/>
<path d="M56.9471 385.494L52.6564 384.675C45.3791 372.594 39.4288 365.212 33.6057 364.102C29.8259 363.381 27.0963 364.924 26.4045 368.551C25.8687 371.36 27.2375 373.898 29.0126 376.248L24.1371 379.606C21.0709 375.421 19.7315 371.619 20.7155 366.46C22.0698 359.36 27.5316 355.426 34.5806 356.77C41.4762 358.086 47.7405 365.209 53.1676 373.391C53.3238 371.462 53.5458 368.911 53.8868 367.123L55.4456 358.95L61.7794 360.158L56.9471 385.494Z" fill="#385aac"/>
<path d="M65.9216 344.389L43.0389 338.374C40.8764 337.805 37.5597 336.718 35.3733 336.036L35.3205 336.237C37.081 337.722 38.8785 339.27 40.6126 340.854L48.3591 349.02L53.6074 329.054L59.2903 330.548L52.1516 357.706L47.0722 356.37L28.177 336.618L30.517 327.716L67.7327 337.499L65.9216 344.389Z" fill="#385aac"/>
<path d="M93.385 273.728C91.0952 278.397 87.0771 282.102 82.2071 283.884L79.3913 277.58C82.8697 276.274 85.9894 273.692 87.4778 270.657C89.2409 267.062 88.6161 264.439 86.2351 263.271C83.6673 262.012 81.7965 263.701 78.978 266.141L74.7503 269.801C71.6552 272.569 67.0671 274.721 62.0716 272.271C56.4224 269.5 54.5306 262.375 57.9424 255.419C59.9116 251.403 63.4682 248.167 67.69 246.762L70.3374 252.347C67.4175 253.695 65.2684 255.479 63.8716 258.327C62.3833 261.361 62.7984 263.939 65.0394 265.039C67.5138 266.252 69.6611 264.236 72.2709 261.867L76.3594 258.254C80.1248 254.946 84.1836 253.52 89.1324 255.947C94.7816 258.718 97.2777 265.791 93.385 273.728Z" fill="#385aac"/>
<path d="M100.529 258.35L66.974 239.515L70.7409 232.804L104.296 251.639L100.529 258.35Z" fill="#385aac"/>
<path d="M112.79 237.507L85.7844 220.184L79.9167 229.332L74.533 225.879L90.4236 201.105L95.8073 204.558L89.9395 213.706L116.945 231.029L112.79 237.507Z" fill="#385aac"/>
<path d="M134.856 207.154C128.993 214.911 118.7 216.975 108.453 209.231C98.33 201.581 97.3298 190.658 103.224 182.858C106.171 178.958 110.348 177.226 113.927 176.803L115.423 183.017C112.696 183.433 110.342 184.392 108.555 186.757C105.075 191.362 106.424 197.856 112.979 202.81C119.7 207.889 126.034 207.787 129.733 202.892C131.709 200.278 132.032 197.263 131.47 194.297L137.774 193.977C138.807 198.734 137.865 203.171 134.856 207.154Z" fill="#385aac"/>
<path d="M154.162 184.007C147.324 191.635 137.02 191.755 127.689 183.39C118.358 175.024 117.627 165.011 124.465 157.384C131.269 149.795 141.341 149.466 150.633 157.797C159.964 166.163 160.966 176.419 154.162 184.007ZM149.206 179.564C153.025 175.305 151.544 169.089 145.426 163.605C139.309 158.12 133.201 157.533 129.383 161.792C125.53 166.09 126.813 172.059 132.93 177.543C139.048 183.028 145.353 183.862 149.206 179.564Z" fill="#385aac"/>
<path d="M166.681 169.295L140.376 141.21L146.069 135.878L168.27 143.226L176.804 146.633L176.993 146.455C173.953 143.817 169.978 140.486 166.992 137.298L156.505 126.102L161.857 121.09L188.162 149.175L182.431 154.542L160.233 147.121L151.77 143.79L151.58 143.968C154.654 146.717 158.415 149.82 161.472 153.084L171.994 164.318L166.681 169.295Z" fill="#385aac"/>
<path d="M199.91 139.403L197.289 135.909C200.045 122.077 200.617 112.613 197.06 107.87C194.751 104.792 191.694 104.095 188.74 106.31C186.452 108.026 185.755 110.824 185.485 113.756L179.619 112.956C180.171 107.797 181.741 104.084 185.943 100.933C191.725 96.5965 198.412 97.3661 202.718 103.107C206.93 108.723 206.763 118.208 205.266 127.911C206.68 126.59 208.563 124.853 210.019 123.761L216.675 118.769L220.543 123.928L199.91 139.403Z" fill="#385aac"/>
<path d="M233.46 116.321C226.866 120.584 218.801 117.688 211.572 106.509C204.372 95.374 205.209 87.0922 211.803 82.8286C218.353 78.5932 226.249 81.2279 233.449 92.3629C240.678 103.541 240.01 112.085 233.46 116.321ZM230.213 111.299C233.007 109.492 233.253 105.37 227.38 96.2876C221.535 87.2487 217.788 85.9558 214.994 87.7629C212.199 89.57 211.797 93.5452 217.642 102.584C223.515 111.667 227.418 113.106 230.213 111.299Z" fill="#385aac"/>
<path d="M245.364 107.8L243.254 103.975C247.906 90.66 249.787 81.3673 246.924 76.1767C245.065 72.8073 242.134 71.6924 238.901 73.4757C236.397 74.8571 235.318 77.5308 234.643 80.3976L228.946 78.7895C230.208 73.7577 232.279 70.2991 236.878 67.7623C243.207 64.2711 249.722 65.9625 253.189 72.2459C256.579 78.3926 255.097 87.7623 252.265 97.1633C253.849 96.0518 255.955 94.5934 257.549 93.7144L264.834 89.6957L267.948 95.3416L245.364 107.8Z" fill="#385aac"/>
<path d="M283.794 87.897L273.851 66.4274C272.911 64.3984 271.636 61.1496 270.769 59.0297L270.58 59.1171C270.558 61.4197 270.51 63.7914 270.393 66.1377L269.035 77.311L287.767 68.6359L290.237 73.9679L264.756 85.7678L262.549 81.002L265.736 53.8535L274.088 49.9858L290.258 84.9034L283.794 87.897Z" fill="#385aac"/>
<path d="M356.447 63.7668C351.389 64.9737 345.973 64.2345 341.499 61.6135L344.567 55.4285C347.788 57.2793 351.766 58.0409 355.053 57.2564C358.948 56.327 360.573 54.1751 359.957 51.5955C359.294 48.8136 356.8 48.4463 353.124 47.8267L347.61 46.8972C343.505 46.2729 338.924 44.1048 337.633 38.6928C336.172 32.5726 340.462 26.5772 347.998 24.7789C352.348 23.7409 357.109 24.4226 360.88 26.7839L358.259 32.3809C355.361 30.9876 352.617 30.4663 349.531 31.2025C346.244 31.9871 344.52 33.9487 345.099 36.3766C345.739 39.0573 348.661 39.4292 352.149 39.9333L357.538 40.7858C362.486 41.583 366.171 43.8046 367.45 49.1661C368.911 55.2862 365.045 61.715 356.447 63.7668Z" fill="#385aac"/>
<path d="M373.695 59.3302L366.919 21.4514L374.495 20.0963L381.27 57.9751L373.695 59.3302Z" fill="#385aac"/>
<path d="M396.775 55.6715L392.951 23.8162L382.16 25.1116L381.398 18.7612L410.62 15.2532L411.382 21.6036L400.592 22.8989L404.416 54.7542L396.775 55.6715Z" fill="#385aac"/>
<path d="M431.6 53.476C421.886 53.9261 413.72 47.3291 413.125 34.4988C412.538 21.8244 420.3 14.0728 430.065 13.6203C434.948 13.394 438.95 15.499 441.563 17.9807L437.74 23.1032C435.677 21.2727 433.435 20.0752 430.475 20.2124C424.709 20.4796 420.577 25.6684 420.957 33.8756C421.347 42.2906 425.474 47.0967 431.603 46.8127C434.876 46.661 437.401 44.9823 439.323 42.6548L443.599 47.2979C440.601 51.1328 436.586 53.2449 431.6 53.476Z" fill="#385aac"/>
<path d="M464.987 53.5301C454.752 53.0954 448.113 45.2145 448.645 32.6938C449.176 20.1731 456.445 13.2473 466.68 13.6821C476.862 14.1146 483.515 21.6837 482.986 34.1525C482.454 46.6732 475.17 53.9627 464.987 53.5301ZM465.269 46.8801C470.984 47.1229 474.844 42.0301 475.193 33.8215C475.541 25.6129 472.114 20.5229 466.399 20.2801C460.633 20.0352 456.838 24.8184 456.489 33.027C456.141 41.2356 459.503 46.6352 465.269 46.8801Z" fill="#385aac"/>
<path d="M485.2 53.9013L490.227 15.751L497.96 16.7699L506.361 38.5943L509.141 47.3524L509.399 47.3864C509.509 43.3623 509.563 38.1769 510.134 33.8464L512.137 18.6378L519.406 19.5955L514.38 57.7458L506.595 56.7202L498.252 34.851L495.459 26.196L495.201 26.162C495.026 30.2824 495.013 35.1584 494.428 39.5921L492.418 54.8522L485.2 53.9013Z" fill="#385aac"/>
<path d="M529.943 60.7529L530.989 56.512C543.442 49.8896 551.13 44.3415 552.55 38.5861C553.472 34.8501 552.076 32.042 548.491 31.1577C545.714 30.4728 543.108 31.7043 540.666 33.3515L537.573 28.3038C541.915 25.4651 545.783 24.3306 550.883 25.5884C557.9 27.3195 561.538 32.9835 559.819 39.9506C558.138 46.7663 550.69 52.6416 542.23 57.6245C544.148 57.8834 546.684 58.2412 548.451 58.6771L556.529 60.6697L554.985 66.93L529.943 60.7529Z" fill="#385aac"/>
<path d="M570.422 72.5877C562.954 70.1638 560.111 62.0793 564.22 49.4174C568.313 36.805 575.266 32.2277 582.734 34.6515C590.153 37.0593 593.093 44.847 589 57.4594C584.89 70.1213 577.841 74.9954 570.422 72.5877ZM572.268 66.8997C575.434 67.927 578.786 65.516 582.125 55.2282C585.447 44.9899 584.086 41.2678 580.92 40.2405C577.755 39.2132 574.418 41.4103 571.095 51.6486C567.756 61.9364 569.103 65.8724 572.268 66.8997Z" fill="#385aac"/>
<path d="M582.561 75.7592L584.187 71.7051C597.44 66.8799 605.826 62.4557 608.033 56.9538C609.465 53.3823 608.473 50.4073 605.047 49.0329C602.392 47.9682 599.639 48.825 596.992 50.1164L594.632 44.6874C599.327 42.4806 603.315 41.8953 608.19 43.8505C614.898 46.5413 617.712 52.6563 615.041 59.3165C612.427 65.8319 604.235 70.6136 595.164 74.371C597.027 74.8942 599.489 75.6014 601.178 76.2789L608.9 79.3762L606.499 85.3607L582.561 75.7592Z" fill="#385aac"/>
<path d="M622.528 93.0374L632.868 71.7562C633.845 69.7451 635.554 66.7023 636.648 64.6897L636.461 64.5988C634.663 66.038 632.796 67.5011 630.905 68.8948L621.391 74.9102L639.96 83.9318L637.392 89.217L612.135 76.9458L614.43 72.2218L637.473 57.5173L645.752 61.5395L628.936 96.1507L622.528 93.0374Z" fill="#385aac"/>
<path d="M685.363 132.652C681.214 129.517 678.34 124.868 677.516 119.748L684.24 118.182C684.861 121.845 686.803 125.398 689.5 127.436C692.694 129.85 695.389 129.735 696.987 127.619C698.712 125.337 697.409 123.18 695.549 119.949L692.759 115.103C690.629 111.538 689.389 106.625 692.743 102.186C696.537 97.1662 703.891 96.6626 710.073 101.334C713.641 104.03 716.143 108.137 716.719 112.549L710.734 114.087C709.965 110.964 708.622 108.515 706.091 106.603C703.395 104.565 700.785 104.483 699.28 106.474C697.618 108.673 699.19 111.164 701.02 114.176L703.79 118.877C706.322 123.202 706.951 127.458 703.628 131.855C699.835 136.875 692.415 137.982 685.363 132.652Z" fill="#385aac"/>
<path d="M700.765 143.914L725.714 114.617L731.573 119.607L706.624 148.903L700.765 143.914Z" fill="#385aac"/>
<path d="M718.833 159.935L741.02 136.759L733.169 129.243L737.592 124.623L758.852 144.976L754.429 149.596L746.579 142.081L724.392 165.257L718.833 159.935Z" fill="#385aac"/>
<path d="M744.319 187.344C737.828 180.104 737.775 169.606 747.339 161.032C756.786 152.563 767.699 153.674 774.225 160.953C777.487 164.592 778.387 169.023 778.117 172.617L771.732 172.895C771.845 170.139 771.355 167.645 769.377 165.439C765.524 161.141 758.891 161.221 752.774 166.705C746.501 172.329 745.388 178.565 749.484 183.133C751.67 185.573 754.568 186.467 757.586 186.485L756.693 192.733C751.827 192.836 747.652 191.061 744.319 187.344Z" fill="#385aac"/>
<path d="M763.362 210.761C757.186 202.588 759.042 192.452 769.04 184.896C779.038 177.341 789.005 178.542 795.182 186.715C801.327 194.846 799.72 204.794 789.763 212.319C779.765 219.874 769.507 218.892 763.362 210.761ZM768.672 206.748C772.121 211.312 778.505 211.049 785.06 206.096C791.615 201.142 793.362 195.26 789.913 190.696C786.433 186.091 780.329 186.207 773.774 191.161C767.219 196.114 765.192 202.143 768.672 206.748Z" fill="#385aac"/>
<path d="M775.609 226.199L808.225 205.781L812.364 212.393L800.886 232.768L795.903 240.488L796.041 240.709C799.214 238.231 803.247 234.971 806.949 232.653L819.951 224.514L823.842 230.728L791.226 251.146L787.059 244.491L798.609 224.132L803.503 216.467L803.365 216.247C800.077 218.735 796.309 221.83 792.518 224.203L779.472 232.37L775.609 226.199Z" fill="#385aac"/>
<path d="M798.818 265.181L802.754 263.287C815.79 268.67 824.964 271.064 830.306 268.494C833.773 266.825 835.049 263.96 833.448 260.633C832.208 258.056 829.598 256.831 826.773 255.997L828.695 250.398C833.649 251.938 836.987 254.198 839.265 258.93C842.4 265.443 840.349 271.855 833.883 274.967C827.557 278.011 818.285 276.01 809.055 272.662C810.077 274.305 811.416 276.488 812.206 278.128L815.814 285.625L810.004 288.421L798.818 265.181Z" fill="#385aac"/>
<path d="M815.082 303.029C812.186 295.731 816.6 288.385 828.974 283.476C841.299 278.586 849.259 281.022 852.155 288.32C855.031 295.571 850.907 302.801 838.582 307.691C826.208 312.601 817.958 310.28 815.082 303.029ZM820.64 300.824C821.868 303.917 825.862 304.962 835.916 300.973C845.921 297.003 847.92 293.581 846.693 290.487C845.465 287.394 841.645 286.225 831.64 290.194C821.586 294.183 819.413 297.731 820.64 300.824Z" fill="#385aac"/>
<path d="M820.576 314.997L824.736 313.665C836.904 320.796 845.659 324.434 851.305 322.626C854.969 321.452 856.628 318.791 855.502 315.275C854.629 312.551 852.214 310.977 849.531 309.761L852.208 304.481C856.902 306.69 859.896 309.389 861.498 314.391C863.703 321.274 860.787 327.341 853.954 329.531C847.268 331.673 838.36 328.411 829.682 323.82C830.467 325.589 831.492 327.936 832.047 329.669L834.586 337.592L828.445 339.56L820.576 314.997Z" fill="#385aac"/>
<path d="M832.777 357.084L855.769 351.504C857.942 350.977 861.377 350.358 863.625 349.919L863.576 349.717C861.322 349.248 859.005 348.74 856.726 348.169L846.03 344.664L850.898 364.726L845.187 366.112L838.566 338.824L843.67 337.585L869.681 345.988L871.851 354.933L834.456 364.007L832.777 357.084Z" fill="#385aac"/>
</svg>
