<svg width="161" height="161" viewBox="0 0 161 161" fill="none" xmlns="http://www.w3.org/2000/svg">
<g filter="url(#filter0_i_1075_2542)">
<path fill-rule="evenodd" clip-rule="evenodd" d="M102.829 157.149C60.4724 169.719 15.9448 145.573 3.37405 103.216C-9.19672 60.8597 14.9496 16.3322 57.3063 3.76139C99.6631 -8.80938 144.191 15.3369 156.761 57.6937C169.332 100.05 145.186 144.578 102.829 157.149ZM69.1688 35.8602C70.7148 30.3208 83.5603 26.3448 83.5603 26.3448C83.5603 26.3448 77.2323 31.3177 76.8285 34.9323C76.5692 37.2542 78.3707 39.3322 80.139 41.3719C82.0642 43.5926 83.9501 45.7679 83.0944 48.1631C81.4529 52.7585 69.8637 54.4291 69.8637 54.4291C69.8637 54.4291 74.9686 51.6203 75.4347 49.091C75.8696 46.7307 74.0438 44.6286 72.2318 42.5425C70.3596 40.3871 68.5022 38.2487 69.1688 35.8602ZM85.4161 41.6642C86.962 36.1248 99.8076 32.1488 99.8076 32.1488C99.8076 32.1488 93.4796 37.1217 93.0758 40.7363C92.8165 43.0582 94.618 45.1362 96.3863 47.1759C98.3115 49.3966 100.197 51.5719 99.3417 53.9671C97.7002 58.5625 86.111 60.2331 86.111 60.2331C86.111 60.2331 91.2159 57.4243 91.682 54.895C92.1169 52.5347 90.291 50.4326 88.4791 48.3465C86.6069 46.1911 84.7495 44.0527 85.4161 41.6642ZM101.663 47.4682C103.209 41.9289 116.055 37.9528 116.055 37.9528C116.055 37.9528 109.727 42.9257 109.323 46.5403C109.064 48.8622 110.865 50.9402 112.634 52.9799C114.559 55.2006 116.445 57.3759 115.589 59.7711C113.947 64.3665 102.358 66.0371 102.358 66.0371C102.358 66.0371 107.463 63.2284 107.929 60.699C108.364 58.3387 106.538 56.2366 104.726 54.1505C102.854 51.9951 100.997 49.8567 101.663 47.4682ZM54.8448 109.293C47.7687 93.3528 52.5904 68.6284 56.9394 55.5374L118.154 77.405C113.224 90.2886 101.289 112.472 85.7147 120.321L54.8448 109.293ZM119.335 84.8121C120.286 82.6772 121.113 80.6598 121.815 78.8146C130.42 82.9044 134.674 92.8898 131.398 102.06C127.905 111.84 117.197 116.911 107.418 113.417C105.867 112.865 104.396 112.111 103.041 111.177C104.463 109.545 105.819 107.843 107.108 106.101C107.888 106.602 108.722 107.012 109.594 107.324C115.966 109.601 123.029 106.255 125.306 99.8835C127.399 94.0227 124.734 87.5791 119.335 84.8121ZM32.3911 109.143C32.1364 107.868 32.0955 106.478 32.1662 105.314L105.782 131.611C105.099 132.557 104.186 133.606 103.182 134.431C102.327 135.132 101.431 135.685 100.702 135.969C99.9744 136.252 99.495 136.236 99.2919 136.163L34.3028 112.947C34.0997 112.875 33.7188 112.583 33.3351 111.903C32.9512 111.223 32.6078 110.227 32.3911 109.143Z" fill="url(#paint0_linear_1075_2542)" fill-opacity="0.4"/>
</g>
<defs>
<filter id="filter0_i_1075_2542" x="0.046875" y="0.434082" width="160.042" height="164.042" filterUnits="userSpaceOnUse" color-interpolation-filters="sRGB">
<feFlood flood-opacity="0" result="BackgroundImageFix"/>
<feBlend mode="normal" in="SourceGraphic" in2="BackgroundImageFix" result="shape"/>
<feColorMatrix in="SourceAlpha" type="matrix" values="0 0 0 0 0 0 0 0 0 0 0 0 0 0 0 0 0 0 127 0" result="hardAlpha"/>
<feOffset dy="4"/>
<feGaussianBlur stdDeviation="2"/>
<feComposite in2="hardAlpha" operator="arithmetic" k2="-1" k3="1"/>
<feColorMatrix type="matrix" values="0 0 0 0 0 0 0 0 0 0 0 0 0 0 0 0 0 0 0.15 0"/>
<feBlend mode="normal" in2="shape" result="effect1_innerShadow_1075_2542"/>
</filter>
<linearGradient id="paint0_linear_1075_2542" x1="153.079" y1="115.435" x2="-0.710212" y2="118.071" gradientUnits="userSpaceOnUse">
<stop stop-color="#946E34" stop-opacity="0.85"/>
<stop offset="0.593656" stop-color="#385AAC" stop-opacity="0.2"/>
<stop offset="0.87243" stop-color="#FFD287" stop-opacity="0.3"/>
<stop offset="1" stop-color="#F8F3E8" stop-opacity="0.53"/>
</linearGradient>
</defs>
</svg>
