<svg width="161" height="161" viewBox="0 0 161 161" fill="none" xmlns="http://www.w3.org/2000/svg">
<g filter="url(#filter0_i_1077_2554)">
<path fill-rule="evenodd" clip-rule="evenodd" d="M57.6934 157.625C15.3368 145.054 -8.80908 100.526 3.7621 58.1692C16.3333 15.8126 60.8611 -8.33331 103.218 4.23787C145.574 16.809 169.72 61.3368 157.149 103.693C144.578 146.05 100.05 170.196 57.6934 157.625ZM107.917 117.407C106.278 114.151 103.582 111.786 100.423 110.83C97.2643 109.875 93.9008 110.408 91.0726 112.312C88.2445 114.217 86.1834 117.336 85.3428 120.985C84.5022 124.633 84.9509 128.512 86.5903 131.767C88.2296 135.023 90.9253 137.388 94.0843 138.344C97.2433 139.299 100.607 138.766 103.435 136.862C106.263 134.957 108.324 131.838 109.165 128.189C110.005 124.541 109.557 120.662 107.917 117.407ZM114.416 62.6661C111.957 57.7829 107.914 54.2345 103.175 52.8014L85.3088 47.3979C84.2558 47.0794 83.1346 47.2571 82.1919 47.8919C81.2492 48.5266 80.5622 49.5665 80.282 50.7827C80.0018 51.9988 80.1514 53.2917 80.6978 54.3768C81.2443 55.462 82.1428 56.2506 83.1958 56.569L101.062 61.9725C103.695 62.7687 105.941 64.7401 107.307 67.453C108.674 70.1659 109.047 73.398 108.347 76.4385C107.646 79.4789 105.929 82.0785 103.572 83.6654C101.215 85.2524 98.4124 85.6966 95.7799 84.9005L67.9875 76.495C63.249 75.0619 58.2037 75.8615 53.9615 78.718C49.7192 81.5745 46.6276 86.2538 45.3667 91.7266C44.1058 97.1993 44.7789 103.017 47.238 107.9C49.697 112.784 53.7406 116.332 58.4791 117.765L76.3456 123.169C77.3986 123.487 78.5198 123.31 79.4625 122.675C80.4052 122.04 81.0922 121 81.3724 119.784C81.6526 118.568 81.5031 117.275 80.9566 116.19C80.4102 115.105 79.5116 114.316 78.4586 113.998L60.592 108.594C57.9596 107.798 55.7131 105.827 54.347 103.114C52.9809 100.401 52.6069 97.1686 53.3074 94.1281C54.0079 91.0877 55.7255 88.4881 58.0823 86.9011C60.4391 85.3142 63.242 84.87 65.8745 85.6661L93.6669 94.0716C98.4054 95.5047 103.451 94.7051 107.693 91.8486C111.935 88.9921 115.027 84.3128 116.288 78.84C117.549 73.3673 116.875 67.5493 114.416 62.6661ZM75.0641 38.7993C73.4248 35.5438 70.7291 33.1782 67.5701 32.2228C64.4111 31.2674 61.0475 31.8005 58.2194 33.7048C55.3912 35.6091 53.3302 38.7286 52.4896 42.3772C51.649 46.0257 52.0977 49.9043 53.7371 53.1598C55.3764 56.4152 58.0721 58.7809 61.2311 59.7363C64.3901 60.6917 67.7537 60.1586 70.5818 58.2543C73.41 56.3499 75.471 53.2304 76.3116 49.5819C77.1522 45.9334 76.7035 42.0547 75.0641 38.7993Z" fill="url(#paint0_linear_1077_2554)" fill-opacity="0.4"/>
</g>
<defs>
<filter id="filter0_i_1077_2554" x="0.43457" y="0.9104" width="160.042" height="164.042" filterUnits="userSpaceOnUse" color-interpolation-filters="sRGB">
<feFlood flood-opacity="0" result="BackgroundImageFix"/>
<feBlend mode="normal" in="SourceGraphic" in2="BackgroundImageFix" result="shape"/>
<feColorMatrix in="SourceAlpha" type="matrix" values="0 0 0 0 0 0 0 0 0 0 0 0 0 0 0 0 0 0 127 0" result="hardAlpha"/>
<feOffset dy="4"/>
<feGaussianBlur stdDeviation="2"/>
<feComposite in2="hardAlpha" operator="arithmetic" k2="-1" k3="1"/>
<feColorMatrix type="matrix" values="0 0 0 0 0 0 0 0 0 0 0 0 0 0 0 0 0 0 0.15 0"/>
<feBlend mode="normal" in2="shape" result="effect1_innerShadow_1077_2554"/>
</filter>
<linearGradient id="paint0_linear_1077_2554" x1="122.564" y1="150.078" x2="-7.76453" y2="68.3908" gradientUnits="userSpaceOnUse">
<stop stop-color="#946E34" stop-opacity="0.85"/>
<stop offset="0.593656" stop-color="#385AAC" stop-opacity="0.2"/>
<stop offset="0.87243" stop-color="#FFD287" stop-opacity="0.3"/>
<stop offset="1" stop-color="#F8F3E8" stop-opacity="0.53"/>
</linearGradient>
</defs>
</svg>
