<svg width="60" height="42" viewBox="0 0 60 42" fill="none" xmlns="http://www.w3.org/2000/svg">
<path id="Vector" fill-rule="evenodd" clip-rule="evenodd" d="M54.5455 35.5789C55.2688 35.5789 55.9625 35.8673 56.4739 36.3805C56.9854 36.8938 57.2727 37.5899 57.2727 38.3158C57.2727 39.0416 56.9854 39.7378 56.4739 40.251C55.9625 40.7643 55.2688 41.0526 54.5455 41.0526H2.72729C2.00397 41.0526 1.31028 40.7643 0.798816 40.251C0.287354 39.7378 1.70914e-05 39.0416 1.70914e-05 38.3158C1.70914e-05 37.5899 0.287354 36.8938 0.798816 36.3805C1.31028 35.8673 2.00397 35.5789 2.72729 35.5789H54.5455ZM30 0C38.7927 0 46.2055 2.94211 51.4582 7.08568C56.6155 11.1526 60 16.6537 60 21.8947C60 24.1992 59.2964 26.1642 58.0555 27.7516C56.8473 29.3006 55.2355 30.3516 53.5936 31.0741C50.3591 32.4918 46.5109 32.8421 43.6364 32.8421H5.4382C4.72277 32.8417 4.01443 32.6998 3.35374 32.4244C2.69304 32.149 2.09295 31.7455 1.58783 31.2371C1.08271 30.7287 0.682459 30.1253 0.410001 29.4614C0.137544 28.7976 -0.00177605 28.0864 1.70914e-05 27.3684V5.47368C1.70914e-05 2.46042 2.42729 0 5.44911 0H30ZM54.0464 19.1579H5.45456V27.3684H43.6364C46.2164 27.3684 49.1864 27.0345 51.4091 26.0575C52.4918 25.5813 53.2664 25.0093 53.7627 24.3743C54.2264 23.7832 54.5455 23.0114 54.5455 21.8947C54.5455 21.0573 54.3818 20.1322 54.0464 19.1579ZM16.3636 5.47368H5.45456V13.6842H16.3636V5.47368ZM30 5.47368H21.8182V13.6842H32.7273V5.58316C31.8382 5.512 30.9273 5.47368 30 5.47368ZM38.1818 6.52189V13.6842H50.5936C49.8172 12.8563 48.9794 12.0887 48.0873 11.388C45.4636 9.31895 42.1146 7.57011 38.1818 6.52189Z" fill="#B1884C"/>
</svg>
