<svg width="45" height="55" viewBox="0 0 45 55" fill="none" xmlns="http://www.w3.org/2000/svg">
<g id="ic:outline-train">
<path id="Vector" d="M12.6562 40.2726C14.9862 40.2726 16.875 38.3794 16.875 36.044C16.875 33.7086 14.9862 31.8154 12.6562 31.8154C10.3263 31.8154 8.4375 33.7086 8.4375 36.044C8.4375 38.3794 10.3263 40.2726 12.6562 40.2726Z" fill="#B1884C"/>
<path id="Vector_2" d="M32.3438 40.2726C34.6737 40.2726 36.5625 38.3794 36.5625 36.044C36.5625 33.7086 34.6737 31.8154 32.3438 31.8154C30.0138 31.8154 28.125 33.7086 28.125 36.044C28.125 38.3794 30.0138 40.2726 32.3438 40.2726Z" fill="#B1884C"/>
<path id="Vector_3" d="M22.5 0.805786C11.25 0.805786 0 2.21532 0 12.082V38.8631C0 44.3039 4.41563 48.7298 9.84375 48.7298L5.625 52.9584V54.368H11.25L16.875 48.7298H28.125L33.75 54.368H39.375V52.9584L35.1562 48.7298C40.5844 48.7298 45 44.3039 45 38.8631V12.082C45 2.21532 33.75 0.805786 22.5 0.805786ZM22.5 6.44391C32.3719 6.44391 36.45 7.79706 38.1656 9.26297H6.83437C8.55 7.79706 12.6281 6.44391 22.5 6.44391ZM5.625 14.9011H19.6875V23.3583H5.625V14.9011ZM39.375 38.8631C39.375 41.2029 37.4906 43.0917 35.1562 43.0917H9.84375C7.50938 43.0917 5.625 41.2029 5.625 38.8631V28.9964H39.375V38.8631ZM39.375 23.3583H25.3125V14.9011H39.375V23.3583Z" fill="#B1884C"/>
</g>
</svg>
