<svg width="127" height="127" viewBox="0 0 127 127" fill="none" xmlns="http://www.w3.org/2000/svg">
<g filter="url(#filter0_d_1049_2141)">
<path d="M117.561 41.0087L106.62 30.0671C105.738 29.1962 104.561 28.6877 103.321 28.6418C102.082 28.5959 100.871 29.016 99.9262 29.8192C98.4677 31.0607 96.596 31.709 94.6821 31.6355C92.7682 31.562 90.9517 30.7722 89.5927 29.4225C88.2438 28.0635 87.4544 26.2474 87.3809 24.334C87.3075 22.4205 87.9552 20.5493 89.196 19.0908C89.9991 18.1461 90.4192 16.9347 90.3733 15.6955C90.3274 14.4563 89.8189 13.2792 88.9481 12.3965L77.9972 1.44252C77.0717 0.518793 75.8176 0 74.5101 0C73.2025 0 71.9484 0.518793 71.023 1.44252L53.5814 18.8826C52.5045 19.9633 51.6924 21.2787 51.2087 22.7256C51.1145 23.0038 50.9575 23.2566 50.7498 23.4643C50.5421 23.6719 50.2894 23.829 50.0112 23.9232C48.5638 24.4069 47.2483 25.22 46.1684 26.2984L1.44244 71.0267C0.518766 71.9522 0 73.2064 0 74.514C0 75.8216 0.518766 77.0757 1.44244 78.0012L12.3958 88.9428C13.2786 89.8137 14.4555 90.3222 15.6946 90.3681C16.9338 90.414 18.1451 89.9939 19.0898 89.1907C20.5449 87.9392 22.4191 87.2837 24.337 87.3557C26.2549 87.4278 28.0747 88.2219 29.4318 89.5791C30.7889 90.9363 31.583 92.7562 31.655 94.6741C31.727 96.5921 31.0716 98.4664 29.8201 99.9216C29.017 100.866 28.5969 102.078 28.6428 103.317C28.6887 104.556 29.1972 105.733 30.068 106.616L41.009 117.557C41.9345 118.481 43.1886 119 44.4961 119C45.8036 119 47.0577 118.481 47.9832 117.557L92.7091 72.8292C93.7869 71.7497 94.5999 70.4351 95.0842 68.9886C95.178 68.7095 95.3352 68.4559 95.5434 68.2477C95.7515 68.0396 96.0051 67.8824 96.2842 67.7886C97.7303 67.3048 99.0448 66.4926 100.125 65.4158L117.564 47.9733C118.484 47.0479 119 45.7956 119 44.4905C119 43.1853 118.482 41.9334 117.561 41.0087ZM60.9423 33.6573C60.5739 34.0257 60.1366 34.318 59.6553 34.5175C59.1739 34.7169 58.658 34.8195 58.137 34.8195C57.616 34.8195 57.1001 34.7169 56.6188 34.5175C56.1374 34.318 55.7001 34.0257 55.3317 33.6573L52.4781 30.8035C51.7523 30.0558 51.3498 29.0525 51.3577 28.0104C51.3655 26.9684 51.783 25.9713 52.52 25.2346C53.257 24.4979 54.2543 24.0808 55.2963 24.0734C56.3383 24.066 57.3413 24.4689 58.0887 25.1951L60.9423 28.0464C61.3107 28.4148 61.603 28.8522 61.8024 29.3335C62.0018 29.8149 62.1045 30.3308 62.1045 30.8518C62.1045 31.3729 62.0018 31.8888 61.8024 32.3702C61.603 32.8515 61.3107 33.2889 60.9423 33.6573ZM71.8511 44.5666C71.1072 45.31 70.0986 45.7276 69.047 45.7276C67.9954 45.7276 66.9868 45.31 66.243 44.5666L63.5158 41.8393C63.1474 41.4709 62.8552 41.0335 62.6558 40.5521C62.4564 40.0708 62.3538 39.5549 62.3538 39.0338C62.3538 38.5128 62.4564 37.9969 62.6558 37.5156C62.8552 37.0342 63.1474 36.5968 63.5158 36.2284C64.2598 35.4844 65.2689 35.0664 66.3211 35.0664C66.8421 35.0664 67.3579 35.169 67.8393 35.3684C68.3206 35.5678 68.758 35.86 69.1264 36.2284L71.8535 38.9557C72.2233 39.3241 72.5167 39.7618 72.717 40.2438C72.9172 40.7257 73.0205 41.2425 73.0207 41.7644C73.0209 42.2863 72.9182 42.8031 72.7183 43.2853C72.5184 43.7674 72.2254 44.2054 71.856 44.5741L71.8511 44.5666ZM82.7598 55.4759C82.3915 55.8444 81.9541 56.1367 81.4728 56.3361C80.9914 56.5355 80.4755 56.6382 79.9545 56.6382C79.4335 56.6382 78.9176 56.5355 78.4363 56.3361C77.955 56.1367 77.5176 55.8444 77.1492 55.4759L74.4221 52.7486C73.6962 52.0009 73.2938 50.9976 73.3016 49.9556C73.3095 48.9135 73.727 47.9164 74.464 47.1797C75.201 46.443 76.1982 46.0259 77.2402 46.0185C78.2822 46.0111 79.2853 46.414 80.0326 47.1402L82.7598 49.8676C83.1306 50.2353 83.4251 50.6726 83.6264 51.1545C83.8278 51.6363 83.932 52.1532 83.9332 52.6754C83.9343 53.1976 83.8324 53.7149 83.6331 54.1976C83.4339 54.6803 83.1413 55.119 82.7722 55.4883L82.7598 55.4759ZM93.7752 66.5192C93.4068 66.8876 92.9695 67.1799 92.4881 67.3793C92.0068 67.5788 91.4909 67.6814 90.9699 67.6814C90.4489 67.6814 89.933 67.5788 89.4517 67.3793C88.9703 67.1799 88.533 66.8876 88.1646 66.5192L85.3283 63.6679C84.9522 63.3006 84.6527 62.8622 84.4475 62.3781C84.2422 61.8941 84.1352 61.3741 84.1327 60.8483C84.1302 60.3225 84.2322 59.8015 84.4329 59.3155C84.6335 58.8295 84.9287 58.3883 85.3014 58.0174C85.674 57.6465 86.1167 57.3535 86.6036 57.1552C87.0905 56.9569 87.612 56.8574 88.1377 56.8625C88.6634 56.8676 89.1829 56.9771 89.6659 57.1847C90.1489 57.3923 90.5859 57.6939 90.9513 58.0719L93.7901 60.9207C94.1583 61.2892 94.4504 61.7267 94.6496 62.2082C94.8488 62.6896 94.9512 63.2056 94.951 63.7266C94.9508 64.2477 94.8479 64.7636 94.6483 65.2448C94.4487 65.7261 94.1562 66.1633 93.7876 66.5316L93.7752 66.5192Z" fill="url(#paint0_linear_1049_2141)" shape-rendering="crispEdges"/>
</g>
<defs>
<filter id="filter0_d_1049_2141" x="0" y="0" width="127" height="127" filterUnits="userSpaceOnUse" color-interpolation-filters="sRGB">
<feFlood flood-opacity="0" result="BackgroundImageFix"/>
<feColorMatrix in="SourceAlpha" type="matrix" values="0 0 0 0 0 0 0 0 0 0 0 0 0 0 0 0 0 0 127 0" result="hardAlpha"/>
<feOffset dx="4" dy="4"/>
<feGaussianBlur stdDeviation="2"/>
<feComposite in2="hardAlpha" operator="out"/>
<feColorMatrix type="matrix" values="0 0 0 0 0.27451 0 0 0 0 0.12549 0 0 0 0 0.00784314 0 0 0 0.1 0"/>
<feBlend mode="normal" in2="BackgroundImageFix" result="effect1_dropShadow_1049_2141"/>
<feBlend mode="normal" in="SourceGraphic" in2="effect1_dropShadow_1049_2141" result="shape"/>
</filter>
<linearGradient id="paint0_linear_1049_2141" x1="0" y1="59.5" x2="119" y2="59.5" gradientUnits="userSpaceOnUse">
<stop stop-color="#385AAC" stop-opacity="0.8"/>
<stop offset="0.589583" stop-color="#946E34" stop-opacity="0.75"/>
<stop offset="1" stop-color="#462002"/>
</linearGradient>
</defs>
</svg>
