<svg width="1440" height="795" viewBox="0 0 1440 795" fill="none" xmlns="http://www.w3.org/2000/svg">
<path d="M393.201 225.952L394.625 225.931C395.405 225.917 395.858 226.289 395.986 227.047L396.783 231.554C396.896 232.22 396.617 232.603 395.943 232.702L372.825 236.029C372.003 236.149 371.514 235.799 371.358 234.977L370.454 230.204C370.369 229.765 370.55 229.495 370.996 229.396L373.643 228.812C374.168 228.698 374.387 228.376 374.302 227.844L372.176 214.972C372.147 214.793 372.052 214.632 371.909 214.521C371.767 214.41 371.589 214.359 371.411 214.377L350.397 216.386C350.318 216.394 350.241 216.418 350.171 216.456C350.101 216.494 350.039 216.546 349.989 216.608C349.94 216.671 349.903 216.743 349.882 216.819C349.861 216.896 349.855 216.977 349.866 217.056L351.715 230.459C351.738 230.625 351.82 230.777 351.947 230.888C352.073 230.999 352.236 231.062 352.406 231.065L354.309 231.086C355.031 231.1 355.449 231.462 355.563 232.17L356.36 237.06C356.378 237.172 356.373 237.286 356.346 237.396C356.318 237.507 356.269 237.61 356.2 237.7C356.131 237.791 356.045 237.866 355.947 237.922C355.848 237.979 355.739 238.014 355.627 238.027L331.679 240.653C331.041 240.723 330.673 240.44 330.573 239.802L329.702 234.062C329.645 233.68 329.805 233.45 330.18 233.372L332.561 232.893C333.029 232.794 333.231 232.507 333.167 232.032L329.596 205.895C329.588 205.845 329.591 205.794 329.605 205.745C329.618 205.697 329.641 205.651 329.674 205.612C329.706 205.573 329.745 205.541 329.791 205.518C329.836 205.496 329.885 205.483 329.936 205.48L347.176 204.226C347.509 204.205 347.754 204.34 347.91 204.63C348.264 205.275 348.377 205.969 348.25 206.713C348.223 206.87 348.233 207.031 348.279 207.183C348.325 207.335 348.405 207.475 348.514 207.592C348.622 207.709 348.757 207.8 348.906 207.858C349.056 207.915 349.217 207.938 349.377 207.925L388.439 204.46C388.566 204.448 388.694 204.485 388.796 204.563C388.898 204.642 388.968 204.757 388.992 204.885L392.457 225.325C392.487 225.502 392.579 225.663 392.715 225.778C392.852 225.893 393.024 225.955 393.201 225.952Z" fill="#A23400"/>
<path d="M298.08 210.455L297.899 208.361C297.857 207.914 298.059 207.674 298.505 207.638L315.395 206.437C315.662 206.418 315.927 206.499 316.136 206.664C316.345 206.83 316.482 207.068 316.522 207.33L320.476 233.382C320.547 233.836 320.812 234.055 321.273 234.041L323.484 233.967C324.171 233.938 324.557 234.264 324.642 234.945L325.355 240.217C325.468 241.025 325.121 241.475 324.313 241.567C304.954 243.799 285.491 247.002 265.927 251.176C265.586 251.253 265.388 251.115 265.331 250.761L259.942 216.227C259.929 216.143 259.932 216.057 259.952 215.974C259.972 215.892 260.009 215.814 260.059 215.746C260.11 215.677 260.173 215.62 260.246 215.577C260.319 215.533 260.4 215.505 260.484 215.493C272.821 213.842 285.031 212.545 297.113 211.603C297.821 211.546 298.144 211.164 298.08 210.455ZM301.343 236.231C301.424 236.219 301.501 236.192 301.57 236.15C301.64 236.108 301.701 236.053 301.749 235.988C301.798 235.923 301.833 235.849 301.852 235.77C301.872 235.691 301.876 235.61 301.864 235.529L299.664 220.68C299.64 220.524 299.557 220.383 299.433 220.286C299.308 220.189 299.151 220.144 298.994 220.159L280.499 222.02C280.416 222.027 280.335 222.052 280.262 222.092C280.189 222.132 280.124 222.186 280.072 222.252C280.021 222.317 279.983 222.393 279.961 222.473C279.94 222.554 279.935 222.638 279.946 222.721L282.274 238.325C282.286 238.405 282.313 238.482 282.355 238.552C282.397 238.622 282.452 238.683 282.517 238.731C282.582 238.779 282.656 238.814 282.735 238.834C282.814 238.854 282.896 238.858 282.976 238.846L301.343 236.231Z" fill="#A23400"/>
<path d="M106.052 272.562C106.129 272.55 106.202 272.523 106.268 272.483C106.334 272.442 106.392 272.389 106.436 272.327C106.481 272.264 106.512 272.193 106.529 272.118C106.545 272.044 106.545 271.967 106.53 271.892L102.799 252.972C102.651 252.235 102.204 251.93 101.46 252.058L87.8653 254.407C87.734 254.428 87.6084 254.476 87.4958 254.548C87.3832 254.619 87.286 254.712 87.2097 254.822C87.1335 254.932 87.0798 255.056 87.0518 255.187C87.0238 255.319 87.0222 255.455 87.0468 255.587L90.682 274.294C90.7315 274.545 90.8755 274.768 91.0837 274.915C91.2919 275.061 91.548 275.121 91.7981 275.081L93.8602 274.773C94.3987 274.687 94.714 274.911 94.8062 275.442L96.1561 282.957C96.2411 283.439 96.0392 283.715 95.5502 283.786L71.7726 287.358C70.7168 287.513 70.0967 287.067 69.9125 286.018L68.892 280.257C68.7149 279.244 69.1401 278.723 70.1676 278.695C70.777 278.681 71.3297 278.525 71.8257 278.227C72.1021 278.071 72.2084 277.837 72.1446 277.525C69.2322 262.744 66.5359 248.649 64.0557 235.242C64.0328 235.118 63.9813 235 63.905 234.898C63.8287 234.797 63.7298 234.714 63.6159 234.657C63.5019 234.599 63.3759 234.568 63.2476 234.567C63.1193 234.565 62.9922 234.593 62.8759 234.647C62.1177 235.001 61.3488 235.147 60.5693 235.083C60.13 235.04 59.8749 234.799 59.804 234.36L58.773 227.451C58.7301 227.179 58.7965 226.901 58.9579 226.678C59.1192 226.455 59.3623 226.305 59.634 226.261L83.4435 222.296C84.2584 222.161 84.7332 222.505 84.8678 223.327L85.8776 229.619C86.0477 230.668 85.6012 231.217 84.5383 231.267C83.2982 231.331 82.7951 231.972 83.029 233.191C83.5888 236.153 84.145 239.37 84.6977 242.842C84.7199 242.98 84.7689 243.113 84.8418 243.232C84.9148 243.351 85.0103 243.455 85.1229 243.537C85.2355 243.619 85.3629 243.678 85.4979 243.71C85.6329 243.742 85.7728 243.747 85.9095 243.724L99.5787 241.577C99.7149 241.557 99.8456 241.509 99.9631 241.437C100.081 241.365 100.182 241.271 100.263 241.159C100.343 241.047 100.4 240.92 100.43 240.785C100.461 240.651 100.464 240.512 100.44 240.376L98.6008 230.055C98.5441 229.736 98.3599 229.52 98.0481 229.407C97.4174 229.187 96.7761 229.201 96.1242 229.449C95.3801 229.733 94.9444 229.481 94.8168 228.695L93.6582 221.584C93.5519 220.925 93.8318 220.546 94.4979 220.446L118.265 216.992C119.264 216.843 119.838 217.272 119.987 218.278L120.88 224.199C121.036 225.261 120.579 225.814 119.509 225.857C118.927 225.885 118.368 225.977 117.829 226.133C117.439 226.239 117.28 226.494 117.351 226.898C119.817 241.092 122.325 254.846 124.876 268.161C124.954 268.551 125.188 268.76 125.578 268.788C126.435 268.859 127.346 268.756 128.31 268.48C128.721 268.367 128.962 268.519 129.032 268.937L130.446 276.579C130.545 277.118 130.326 277.437 129.787 277.536L105.829 281.958C105.29 282.057 104.971 281.837 104.872 281.299L103.48 273.656C103.461 273.564 103.462 273.469 103.482 273.377C103.502 273.285 103.54 273.198 103.595 273.121C103.65 273.044 103.72 272.98 103.8 272.931C103.881 272.882 103.971 272.851 104.064 272.838L106.052 272.562Z" fill="#A23400"/>
<path d="M253.352 244.224L255.361 244.011C255.569 243.99 255.777 244.05 255.941 244.179C256.106 244.308 256.214 244.495 256.243 244.702L257.381 252.207C257.409 252.409 257.361 252.614 257.244 252.782C257.128 252.949 256.953 253.067 256.753 253.11L233.082 258.287C232.974 258.31 232.863 258.31 232.755 258.289C232.647 258.267 232.544 258.223 232.454 258.161C232.363 258.098 232.286 258.017 232.228 257.924C232.17 257.83 232.131 257.726 232.115 257.617L230.882 249.719C230.85 249.514 230.899 249.305 231.018 249.135C231.137 248.965 231.316 248.847 231.52 248.805L234.049 248.295C234.257 248.254 234.44 248.133 234.559 247.958C234.679 247.783 234.725 247.568 234.687 247.36L231.807 230.459C231.789 230.353 231.75 230.252 231.692 230.162C231.635 230.071 231.56 229.993 231.472 229.931C231.384 229.87 231.284 229.827 231.179 229.804C231.074 229.782 230.966 229.78 230.861 229.8L228.427 230.247C228.219 230.285 228.035 230.404 227.914 230.577C227.793 230.75 227.744 230.963 227.778 231.171L229.617 242.577C229.651 242.783 229.604 242.995 229.485 243.168C229.366 243.34 229.185 243.46 228.979 243.501L222.325 244.798C222.221 244.818 222.113 244.817 222.009 244.795C221.904 244.773 221.805 244.731 221.717 244.671C221.629 244.611 221.554 244.534 221.496 244.444C221.438 244.355 221.398 244.255 221.379 244.15L219.349 232.755C219.331 232.649 219.292 232.548 219.235 232.457C219.177 232.367 219.102 232.288 219.014 232.227C218.926 232.166 218.827 232.123 218.722 232.1C218.617 232.078 218.509 232.076 218.403 232.096L215.841 232.585C215.636 232.624 215.454 232.741 215.333 232.911C215.212 233.082 215.162 233.293 215.193 233.499L217.808 250.846C217.825 250.959 217.866 251.066 217.927 251.162C217.989 251.258 218.07 251.34 218.165 251.402C218.26 251.464 218.368 251.505 218.48 251.523C218.593 251.541 218.708 251.535 218.818 251.505L221.294 250.857C221.403 250.829 221.516 250.823 221.626 250.841C221.737 250.859 221.843 250.9 221.936 250.961C222.03 251.022 222.111 251.102 222.172 251.196C222.234 251.289 222.275 251.395 222.293 251.505L223.59 259.562C223.622 259.767 223.573 259.977 223.454 260.147C223.335 260.317 223.156 260.435 222.952 260.476L199.111 265.185C199.004 265.206 198.894 265.206 198.787 265.183C198.68 265.161 198.579 265.117 198.49 265.055C198.4 264.992 198.324 264.912 198.267 264.819C198.209 264.727 198.171 264.623 198.154 264.515L196.9 256.458C196.868 256.255 196.916 256.047 197.032 255.877C197.149 255.707 197.326 255.588 197.527 255.544L199.504 255.13C199.708 255.088 199.887 254.97 200.006 254.8C200.125 254.63 200.173 254.421 200.142 254.216L195.189 222.987C195.155 222.777 195.205 222.562 195.328 222.389C195.452 222.216 195.638 222.099 195.848 222.062L212.249 219.245C212.362 219.227 212.477 219.233 212.587 219.263C212.697 219.293 212.8 219.345 212.888 219.418C212.977 219.49 213.049 219.58 213.1 219.682C213.151 219.785 213.18 219.897 213.184 220.011L213.28 222.19C213.284 222.304 213.313 222.416 213.364 222.518C213.415 222.62 213.487 222.71 213.575 222.783C213.664 222.855 213.767 222.908 213.877 222.937C213.987 222.967 214.102 222.973 214.215 222.955L247.793 217.247C247.899 217.229 248.008 217.232 248.113 217.257C248.218 217.281 248.317 217.327 248.404 217.39C248.491 217.453 248.565 217.534 248.621 217.626C248.676 217.718 248.713 217.821 248.728 217.927L252.47 243.533C252.499 243.74 252.607 243.928 252.772 244.056C252.936 244.185 253.144 244.245 253.352 244.224Z" fill="#A23400"/>
<path d="M131.891 247.083C131.183 247.034 130.471 247.136 129.755 247.392C128.983 247.668 128.529 247.402 128.394 246.594L127.045 238.516C126.917 237.723 127.25 237.265 128.044 237.145L152.108 233.457C152.576 233.386 152.852 233.581 152.937 234.041L154.511 242.874C154.581 243.292 154.415 243.562 154.011 243.682C153.472 243.838 152.913 243.898 152.332 243.863C152.164 243.853 151.996 243.881 151.84 243.944C151.684 244.007 151.545 244.105 151.432 244.229C151.319 244.354 151.235 244.502 151.186 244.663C151.138 244.824 151.126 244.993 151.152 245.159L153.937 262.783C154.064 263.569 154.521 263.899 155.308 263.771L169.753 261.443C169.882 261.423 170.007 261.377 170.118 261.308C170.23 261.239 170.327 261.148 170.403 261.041C170.479 260.934 170.533 260.813 170.562 260.685C170.591 260.557 170.594 260.425 170.571 260.296L167.542 242.959C167.472 242.569 167.251 242.221 166.926 241.993C166.602 241.764 166.201 241.672 165.809 241.737L163.684 242.098C163.301 242.162 163.078 242.003 163.014 241.62L161.473 232.744C161.456 232.649 161.458 232.551 161.48 232.456C161.501 232.361 161.541 232.272 161.598 232.193C161.654 232.114 161.726 232.046 161.808 231.995C161.891 231.944 161.983 231.91 162.079 231.894L186.292 227.887C186.873 227.795 187.21 228.036 187.302 228.61L188.726 236.879C188.811 237.397 188.609 237.744 188.12 237.921L186.536 238.495C186.076 238.665 185.888 238.994 185.973 239.483L190.31 264.568C190.586 266.149 189.934 267.081 188.354 267.364L138.088 276.271C137.951 276.296 137.808 276.263 137.693 276.182C137.578 276.1 137.498 275.976 137.472 275.835L132.71 247.817C132.677 247.62 132.578 247.44 132.429 247.307C132.28 247.174 132.091 247.095 131.891 247.083Z" fill="#A23400"/>
<path d="M453.14 284.764L457.211 312.995C457.226 313.097 457.262 313.194 457.315 313.282C457.368 313.369 457.439 313.446 457.522 313.506C457.605 313.566 457.699 313.609 457.799 313.633C457.899 313.657 458.002 313.66 458.103 313.644L476.683 310.689C476.885 310.658 477.09 310.708 477.255 310.827C477.42 310.946 477.532 311.126 477.566 311.327L480.032 325.495C480.05 325.598 480.047 325.704 480.023 325.805C480 325.907 479.956 326.003 479.894 326.087C479.833 326.172 479.755 326.243 479.665 326.296C479.576 326.35 479.476 326.385 479.373 326.399L429.968 333.191C429.867 333.206 429.763 333.201 429.664 333.176C429.565 333.151 429.471 333.106 429.389 333.045C429.307 332.984 429.238 332.907 429.186 332.819C429.134 332.731 429.1 332.633 429.086 332.532L422.719 289.154C422.704 289.052 422.67 288.953 422.617 288.864C422.564 288.775 422.494 288.698 422.411 288.637C422.328 288.575 422.233 288.531 422.133 288.507C422.032 288.482 421.928 288.478 421.826 288.495L406.605 291.025C406.503 291.041 406.4 291.038 406.3 291.014C406.2 290.99 406.106 290.947 406.023 290.887C405.94 290.827 405.87 290.75 405.816 290.663C405.763 290.575 405.727 290.478 405.712 290.376L403.352 275.591C403.321 275.39 403.371 275.184 403.49 275.019C403.61 274.854 403.789 274.743 403.99 274.709L419.562 272.243C419.763 272.209 419.942 272.097 420.061 271.932C420.181 271.767 420.23 271.562 420.199 271.361L416.256 246.743C416.239 246.641 416.243 246.537 416.268 246.436C416.292 246.336 416.336 246.241 416.398 246.158C416.459 246.075 416.536 246.005 416.625 245.952C416.714 245.899 416.813 245.865 416.915 245.85L445.55 242.077C445.751 242.049 445.955 242.102 446.118 242.223C446.281 242.344 446.39 242.525 446.422 242.725L450.546 267.619C450.577 267.814 450.682 267.989 450.838 268.109C450.994 268.23 451.19 268.286 451.386 268.267L468.807 266.652C469.002 266.633 469.196 266.688 469.352 266.806C469.508 266.924 469.613 267.097 469.647 267.29L472.028 280.927C472.046 281.031 472.042 281.138 472.017 281.241C471.992 281.344 471.947 281.441 471.883 281.526C471.819 281.61 471.739 281.681 471.647 281.734C471.555 281.786 471.453 281.819 471.347 281.83L453.809 283.882C453.707 283.895 453.608 283.928 453.519 283.98C453.43 284.031 453.352 284.1 453.289 284.182C453.227 284.265 453.182 284.358 453.156 284.458C453.13 284.558 453.125 284.662 453.14 284.764Z" fill="#391300"/>
<path d="M336.25 304.407L330.563 305.682C329.954 305.817 329.567 305.583 329.404 304.981C329.086 303.801 328.916 302.727 328.586 301.568C327.715 298.508 327.023 294.851 326.641 291.11C326.563 290.415 326.868 289.99 327.555 289.834L334.124 288.367C334.3 288.329 334.454 288.225 334.557 288.077C334.659 287.93 334.702 287.748 334.677 287.57L330.744 259.785C330.652 259.14 330.928 258.768 331.573 258.669L389.12 249.486C389.363 249.448 389.612 249.508 389.811 249.651C390.01 249.795 390.144 250.01 390.183 250.251L393.435 269.469C393.454 269.576 393.43 269.686 393.368 269.775C393.306 269.865 393.212 269.926 393.106 269.947L369.009 274.432C368.935 274.446 368.86 274.445 368.787 274.43C368.714 274.414 368.645 274.384 368.584 274.341C368.524 274.298 368.472 274.244 368.434 274.181C368.396 274.118 368.371 274.048 368.361 273.975L367.457 267.258C367.358 266.471 366.922 266.166 366.15 266.344L363.641 266.918C362.876 267.088 362.546 267.566 362.653 268.352L364.46 281.352C364.473 281.441 364.503 281.527 364.55 281.604C364.596 281.682 364.658 281.749 364.73 281.801C364.803 281.854 364.885 281.891 364.972 281.911C365.059 281.93 365.148 281.932 365.236 281.915L392.106 276.707C392.222 276.685 392.341 276.689 392.456 276.717C392.57 276.745 392.677 276.797 392.769 276.87C392.861 276.943 392.935 277.034 392.988 277.138C393.041 277.242 393.07 277.356 393.074 277.472C393.123 279.067 393.389 280.693 393.871 282.351C394.87 285.767 395.536 289.065 395.869 292.247C395.919 292.665 395.738 292.913 395.327 292.991L368.137 298.114C367.827 298.174 367.551 298.351 367.367 298.608C367.183 298.865 367.105 299.183 367.149 299.496L370.975 326.027C370.996 326.167 371.044 326.301 371.118 326.422C371.192 326.543 371.289 326.648 371.404 326.73C371.519 326.813 371.65 326.871 371.788 326.902C371.926 326.932 372.069 326.935 372.208 326.909L378.278 325.782C378.398 325.76 378.521 325.762 378.641 325.788C378.76 325.815 378.873 325.865 378.974 325.936C379.074 326.008 379.159 326.099 379.223 326.204C379.288 326.309 379.332 326.426 379.351 326.548L379.867 329.752L380.669 338.771C380.669 340.365 380.078 340.394 379.574 340.472C366.302 342.569 352.052 344.433 336.824 346.063C336.687 346.078 336.549 346.064 336.417 346.024C336.286 345.984 336.164 345.918 336.059 345.83C335.954 345.741 335.867 345.633 335.805 345.51C335.743 345.388 335.706 345.254 335.697 345.117L334.932 333.191C334.92 333.031 334.97 332.873 335.073 332.748C335.176 332.624 335.323 332.543 335.484 332.521L340.076 331.969C340.187 331.954 340.295 331.918 340.392 331.862C340.489 331.805 340.574 331.73 340.642 331.64C340.71 331.55 340.76 331.447 340.789 331.338C340.818 331.228 340.825 331.114 340.81 331.001L337.217 305.077C337.202 304.967 337.164 304.862 337.107 304.767C337.049 304.673 336.972 304.592 336.881 304.529C336.79 304.466 336.687 304.422 336.578 304.401C336.469 304.38 336.358 304.382 336.25 304.407Z" fill="#391300"/>
<path d="M592.999 267.842C592.149 267.963 591.862 268.43 592.138 269.245L598.112 286.964C598.201 287.228 598.382 287.451 598.622 287.594C598.862 287.736 599.144 287.788 599.419 287.74L604.925 286.794C605.301 286.73 605.687 286.803 606.011 287.001C606.336 287.198 606.577 287.506 606.69 287.868L609.793 297.934C609.819 298.017 609.827 298.104 609.817 298.19C609.807 298.277 609.779 298.36 609.735 298.435C609.691 298.51 609.632 298.575 609.561 298.626C609.491 298.677 609.411 298.713 609.326 298.731L566.075 308.265C565.944 308.295 565.809 308.297 565.677 308.272C565.546 308.248 565.42 308.197 565.309 308.122C565.198 308.047 565.103 307.951 565.03 307.839C564.957 307.726 564.907 307.6 564.885 307.468C564.183 303.507 563.287 299.549 562.195 295.595C562.164 295.48 562.157 295.36 562.175 295.242C562.193 295.124 562.235 295.01 562.299 294.909C562.363 294.807 562.447 294.719 562.546 294.651C562.645 294.582 562.757 294.535 562.876 294.511L567.893 293.544C567.995 293.526 568.093 293.486 568.18 293.428C568.266 293.369 568.34 293.293 568.396 293.204C568.452 293.115 568.489 293.015 568.505 292.911C568.521 292.807 568.515 292.7 568.488 292.598L563.184 272.551C563.107 272.26 562.929 272.006 562.681 271.834C562.434 271.663 562.134 271.585 561.834 271.616L556.647 272.158C556.437 272.178 556.226 272.124 556.053 272.005C555.88 271.887 555.755 271.711 555.701 271.509L552.991 261.369C552.959 261.252 552.953 261.13 552.975 261.011C552.996 260.892 553.043 260.779 553.113 260.68C553.184 260.581 553.275 260.5 553.38 260.44C553.486 260.381 553.603 260.346 553.724 260.338C576.839 258.531 598.47 255.622 618.616 251.611C619.189 251.498 619.551 251.725 619.7 252.292C621.082 257.677 622.835 263.094 624.961 268.544C625.11 268.933 624.979 269.16 624.568 269.224L601.843 272.721C601.549 272.765 601.249 272.702 600.998 272.544C600.746 272.386 600.559 272.144 600.471 271.86L599.387 268.363C599.097 267.442 598.473 267.049 597.516 267.183L592.999 267.842Z" fill="#391300"/>
<path d="M260.665 339.877L266.596 339.43C266.849 339.412 267.099 339.493 267.293 339.656C267.487 339.818 267.611 340.05 267.638 340.302L268.892 351.675C268.916 351.886 268.854 352.098 268.721 352.265C268.588 352.432 268.393 352.541 268.18 352.568C253.448 354.219 238.528 356.327 223.42 358.892C223.08 358.949 222.885 358.804 222.835 358.457L220.954 344.628C220.938 344.51 220.946 344.389 220.977 344.274C221.009 344.159 221.064 344.051 221.138 343.957C221.213 343.864 221.306 343.787 221.411 343.73C221.516 343.674 221.632 343.639 221.751 343.629L226.885 343.182C227.016 343.172 227.143 343.135 227.259 343.075C227.375 343.015 227.478 342.932 227.561 342.832C227.644 342.732 227.706 342.616 227.744 342.492C227.781 342.368 227.793 342.238 227.778 342.109C227.027 334.484 226.655 327.093 226.662 319.936C226.683 307.723 225.833 294.883 223.962 282.851C223.934 282.663 223.978 282.471 224.086 282.314C224.195 282.156 224.359 282.044 224.547 282C243.849 277.6 263.457 273.104 283.369 268.512C291.582 266.62 299.313 264.951 306.562 263.506C306.628 263.492 306.696 263.492 306.762 263.506C306.828 263.519 306.89 263.546 306.945 263.585C307 263.624 307.046 263.674 307.081 263.732C307.115 263.789 307.138 263.853 307.147 263.92L317.776 334.179C317.847 334.619 318.102 334.81 318.541 334.753L324.302 333.935C324.883 333.85 325.231 334.098 325.344 334.679C326.081 338.413 326.347 342.279 326.141 346.276C326.132 346.416 326.073 346.548 325.976 346.649C325.879 346.75 325.749 346.814 325.61 346.828L281.286 351.133C281.09 351.154 280.894 351.096 280.74 350.973C280.587 350.849 280.489 350.67 280.467 350.474L279.139 339.016C279.128 338.932 279.135 338.846 279.159 338.765C279.182 338.684 279.222 338.608 279.276 338.542C279.329 338.477 279.396 338.423 279.471 338.384C279.546 338.344 279.628 338.321 279.713 338.314L285.42 337.9C285.563 337.889 285.702 337.85 285.83 337.784C285.957 337.718 286.07 337.626 286.161 337.515C286.252 337.404 286.32 337.275 286.361 337.137C286.402 336.998 286.415 336.853 286.398 336.709L283.847 314.367C283.821 314.141 283.706 313.936 283.526 313.794C283.347 313.653 283.119 313.588 282.891 313.612L258.741 316.535C258.58 316.556 258.433 316.638 258.33 316.762C258.227 316.887 258.176 317.045 258.188 317.205L259.804 339.133C259.839 339.664 260.126 339.912 260.665 339.877ZM256.052 289.76C255.884 289.796 255.735 289.893 255.635 290.032C255.535 290.172 255.49 290.344 255.51 290.514L256.934 303.259C256.944 303.354 256.974 303.446 257.021 303.529C257.069 303.613 257.133 303.685 257.21 303.742C257.287 303.799 257.375 303.839 257.468 303.86C257.562 303.881 257.658 303.883 257.752 303.865L281.062 299.496C281.237 299.463 281.391 299.363 281.494 299.219C281.597 299.074 281.64 298.896 281.615 298.72L279.659 285.189C279.646 285.095 279.613 285.004 279.562 284.923C279.511 284.842 279.444 284.772 279.366 284.718C279.287 284.664 279.197 284.627 279.103 284.609C279.009 284.592 278.913 284.594 278.82 284.615L256.052 289.76Z" fill="#391300"/>
<path d="M516.405 301.707C516.39 301.998 516.426 302.278 516.511 302.547C516.616 302.866 516.834 303.137 517.126 303.307C517.417 303.477 517.762 303.536 518.095 303.472L551.821 296.754C552.11 296.697 552.41 296.755 552.655 296.917C552.9 297.078 553.07 297.329 553.129 297.615L555.584 309.275C555.638 309.541 555.586 309.818 555.439 310.046C555.292 310.274 555.062 310.436 554.798 310.497C544.402 312.893 533.525 315.373 522.166 317.938C520.242 318.374 518.424 319.171 516.49 319.575C508.057 321.353 499.21 323.001 489.948 324.517C489.601 324.574 489.392 324.429 489.321 324.082C488.471 320.057 487.769 315.915 487.217 311.656C485.466 298.001 483.521 284.739 481.381 271.871C481.362 271.751 481.367 271.628 481.398 271.51C481.428 271.392 481.482 271.282 481.557 271.186C481.632 271.091 481.726 271.011 481.833 270.953C481.94 270.896 482.057 270.861 482.178 270.85L545.423 265.748C545.633 265.73 545.843 265.787 546.014 265.91C546.186 266.033 546.308 266.213 546.358 266.418C547.839 272.47 549.437 278.549 551.152 284.658C551.938 287.474 552.002 290.217 552.523 293.023C552.548 293.165 552.516 293.311 552.435 293.431C552.353 293.55 552.229 293.632 552.087 293.661L517.808 300.102C516.915 300.265 516.447 300.8 516.405 301.707ZM529.998 281.418C529.973 281.218 529.909 281.026 529.809 280.851C529.71 280.677 529.577 280.523 529.418 280.4C529.259 280.277 529.078 280.186 528.884 280.133C528.69 280.08 528.487 280.066 528.288 280.091L514.663 281.812C514.26 281.863 513.894 282.072 513.646 282.393C513.397 282.713 513.286 283.12 513.336 283.522L513.398 284.008C513.423 284.207 513.487 284.399 513.587 284.574C513.686 284.749 513.819 284.902 513.978 285.025C514.137 285.148 514.318 285.239 514.512 285.292C514.706 285.345 514.909 285.359 515.108 285.334L528.733 283.613C529.136 283.562 529.502 283.353 529.75 283.033C529.999 282.712 530.11 282.305 530.06 281.903L529.998 281.418Z" fill="#391300"/>
<path d="M843.095 340.111C838.368 329.113 834.684 319.185 832.041 310.327C829.482 301.746 826.598 293.069 823.388 284.296C823.371 284.25 823.364 284.2 823.368 284.151C823.372 284.101 823.387 284.053 823.413 284.009C823.438 283.966 823.473 283.928 823.515 283.899C823.556 283.869 823.604 283.849 823.654 283.839C844.402 280.006 865.625 276.466 887.323 273.221C887.848 273.143 888.248 273.33 888.524 273.784C892.408 279.984 895.724 286.49 898.473 293.299C907.498 315.631 914.949 338.335 919.711 361.624C923.75 381.352 928.671 400.665 933.082 420.861C933.091 420.905 933.091 420.951 933.082 420.995C933.073 421.039 933.055 421.081 933.029 421.117C933.003 421.154 932.97 421.185 932.932 421.209C932.893 421.233 932.85 421.248 932.806 421.254C910.626 424.223 888.854 427.649 867.489 431.533C867.427 431.543 867.364 431.542 867.303 431.527C867.242 431.513 867.185 431.487 867.135 431.45C867.085 431.413 867.044 431.366 867.013 431.313C866.983 431.259 866.964 431.2 866.958 431.139C864.917 414.866 861.994 397.179 857.7 381.012C854.497 368.951 849.628 355.317 843.095 340.111Z" fill="#391300"/>
<path d="M820.539 312.443C824.77 326.537 830.489 340.047 836.037 353.408C842.223 368.289 846.96 384.293 850.248 401.42C855.159 427.037 858.603 453.259 860.888 479.056C860.902 479.229 860.852 479.401 860.748 479.539C860.644 479.676 860.493 479.769 860.325 479.8L792.553 493.427C791.525 493.632 790.962 493.214 790.863 492.173C789.538 478.454 788.145 465.546 786.685 453.45C785.892 446.924 784.407 439.179 782.232 430.215C778.292 414.002 774.246 397.168 770.093 379.715C767.574 369.15 764.513 358.212 760.984 347.806C755.379 331.26 750.542 314.561 746.475 297.71C746.362 297.229 746.549 296.949 747.038 296.871C767.645 293.576 788.935 289.802 810.909 285.551C811.205 285.494 811.512 285.547 811.772 285.699C812.032 285.852 812.228 286.094 812.323 286.38C815.002 294.458 817.74 303.146 820.539 312.443Z" fill="#391300"/>
<path d="M759.028 453.046C758.915 452.954 758.808 452.869 758.709 452.791C758.355 452.536 758.167 452.621 758.146 453.046C758.139 453.139 758.057 453.177 757.901 453.163C757.83 453.163 757.777 453.131 757.742 453.068C757.359 452.409 757.033 452.005 756.764 451.856C753.596 450.07 750.755 447.902 748.239 445.351C746.277 443.36 744.438 441.336 742.723 439.282C741.782 438.157 740.943 436.951 740.214 435.678C739.01 433.567 737.826 431.345 736.664 429.014C735.615 426.923 734.645 424.691 733.752 422.317C732.611 419.306 730.914 416.205 728.66 413.017C728.224 412.4 728.309 411.709 727.799 411.071C726.488 409.42 725.124 407.936 723.707 406.618C723.048 406.001 722.261 405.385 721.347 404.768C720.511 404.194 719.718 403.514 718.966 402.728C718.725 402.472 718.428 402.348 718.074 402.355C717.103 402.37 716.291 402.037 715.639 401.356C715.398 401.108 715.108 401.006 714.768 401.048C714.279 401.105 713.956 400.892 713.801 400.41C713.68 400.035 713.428 399.9 713.046 400.006C712.415 400.184 711.969 399.971 711.707 399.369C711.636 399.203 711.508 399.069 711.345 398.99C711.183 398.912 710.998 398.896 710.824 398.943C710.293 399.078 709.903 398.908 709.655 398.433C709.372 397.881 708.932 397.693 708.337 397.87C707.501 398.111 706.853 397.916 706.392 397.285C706.165 396.974 705.86 396.818 705.478 396.818L703.182 396.807C703.083 396.807 702.98 396.8 702.874 396.786C702.449 396.722 702.218 396.57 702.183 396.329C702.112 395.854 701.839 395.67 701.364 395.776C700.734 395.925 700.291 395.716 700.036 395.149C699.908 394.865 699.688 394.717 699.377 394.702C698.604 394.667 697.828 394.674 697.049 394.724C696.744 394.745 696.457 394.692 696.188 394.564C695.919 394.437 695.706 394.245 695.55 393.99C695.458 393.837 695.319 393.717 695.152 393.648C694.986 393.579 694.801 393.565 694.625 393.608C693.718 393.834 692.974 393.618 692.393 392.959C692.239 392.785 692.041 392.656 691.82 392.585C691.599 392.514 691.364 392.504 691.139 392.555C690.53 392.697 689.998 392.587 689.545 392.226C689.318 392.034 689.063 391.903 688.779 391.833L687.079 391.418C686.717 391.326 686.388 391.181 686.09 390.982C685.658 390.692 685.18 390.525 684.655 390.483C684.138 390.44 683.606 390.291 683.061 390.036C680.956 389.058 678.823 388.18 676.662 387.4C676.336 387.287 676.045 387.11 675.79 386.869C675.146 386.259 674.408 386.036 673.579 386.199C673.168 386.277 672.818 386.167 672.527 385.87C672.017 385.366 671.379 385.111 670.614 385.104C670.38 385.097 670.228 384.984 670.157 384.764C670.114 384.624 670.026 384.503 669.909 384.42C669.791 384.337 669.65 384.297 669.508 384.307C668.991 384.342 668.552 384.187 668.19 383.839C667.914 383.57 667.578 383.34 667.181 383.148C664.084 381.667 661.129 380.573 658.316 379.864C657.969 379.772 657.77 379.552 657.721 379.205C657.664 378.766 657.699 378.316 657.827 377.855L669.785 375.368C670.444 375.233 670.706 374.833 670.571 374.167L664.183 342.991C664.15 342.828 664.085 342.673 663.992 342.535C663.899 342.397 663.78 342.28 663.641 342.189C663.503 342.098 663.348 342.035 663.185 342.005C663.023 341.975 662.856 341.978 662.695 342.013L623.898 350.485L617.914 345.064C617.616 344.795 617.266 344.678 616.862 344.713C616.444 344.741 616.174 344.543 616.054 344.118C616.019 343.997 615.949 343.889 615.853 343.806C615.756 343.723 615.638 343.669 615.512 343.65C615.377 343.636 615.243 343.643 615.108 343.671C614.647 343.771 614.282 343.629 614.013 343.246C613.418 342.403 612.674 341.833 611.781 341.535C610.86 341.223 609.978 340.798 609.134 340.259C608.539 339.877 607.919 339.568 607.274 339.335C606.062 338.899 605.839 337.974 604.84 337.411C604.606 337.276 604.358 337.223 604.096 337.251C603.735 337.294 603.465 337.156 603.288 336.837C603.04 336.383 602.668 336.185 602.172 336.242C602.028 336.258 601.883 336.245 601.746 336.203C601.609 336.161 601.482 336.091 601.375 335.997C601.269 335.912 601.198 335.806 601.162 335.678C601.021 335.196 600.709 335.023 600.227 335.157C599.795 335.285 599.465 335.175 599.238 334.828C599.075 334.58 598.859 334.385 598.59 334.243L580.733 324.826C613.988 315.685 644.466 309.548 672.166 306.416C688.57 304.566 704.964 302.618 721.347 300.57C721.606 300.539 721.867 300.602 722.081 300.749C722.294 300.896 722.445 301.116 722.506 301.367C725.121 312.265 727.505 321.64 729.659 329.492C733.73 344.32 738.354 358.191 741.511 373.051C744.647 387.772 747.57 402.419 751.141 416.801C754.543 430.502 757.104 440.451 759.028 453.046Z" fill="#391300"/>
<path d="M580.733 324.826L598.59 334.243C598.859 334.385 599.075 334.58 599.238 334.828C599.465 335.175 599.795 335.285 600.227 335.157C600.709 335.023 601.021 335.196 601.162 335.678C601.198 335.806 601.269 335.912 601.375 335.997C601.482 336.091 601.609 336.161 601.746 336.203C601.883 336.245 602.028 336.258 602.172 336.241C602.668 336.185 603.04 336.383 603.288 336.837C603.465 337.156 603.735 337.294 604.096 337.251C604.358 337.223 604.606 337.276 604.84 337.411C605.839 337.974 606.062 338.899 607.274 339.335C607.919 339.568 608.539 339.877 609.134 340.259C609.977 340.798 610.86 341.223 611.781 341.535C612.674 341.832 613.418 342.403 614.013 343.246C614.282 343.629 614.647 343.771 615.108 343.671C615.243 343.643 615.377 343.636 615.512 343.65C615.638 343.669 615.756 343.723 615.852 343.806C615.949 343.889 616.018 343.997 616.054 344.118C616.174 344.543 616.444 344.741 616.862 344.713C617.266 344.678 617.616 344.795 617.914 345.064L623.898 350.485L608.209 354.077C607.947 354.138 607.719 354.299 607.572 354.525C607.425 354.751 607.372 355.025 607.423 355.289L613.46 385.869C613.486 385.999 613.537 386.121 613.609 386.231C613.682 386.34 613.775 386.434 613.884 386.508C613.993 386.581 614.114 386.631 614.242 386.657C614.37 386.682 614.502 386.682 614.63 386.656L657.827 377.855C657.699 378.316 657.664 378.766 657.721 379.205C657.77 379.552 657.969 379.772 658.316 379.864C661.129 380.573 664.084 381.667 667.181 383.148C667.577 383.34 667.914 383.57 668.19 383.839C668.552 384.187 668.991 384.342 669.508 384.307C669.65 384.297 669.791 384.337 669.909 384.42C670.026 384.503 670.114 384.624 670.157 384.764C670.228 384.984 670.38 385.097 670.614 385.104C671.379 385.111 672.017 385.366 672.527 385.869C672.818 386.167 673.168 386.277 673.579 386.199C674.408 386.036 675.145 386.259 675.79 386.869C676.045 387.11 676.336 387.287 676.662 387.4C678.823 388.18 680.956 389.058 683.061 390.036C683.606 390.291 684.138 390.44 684.655 390.483C685.179 390.525 685.658 390.692 686.09 390.982C686.388 391.181 686.717 391.326 687.079 391.418L688.779 391.832C689.063 391.903 689.318 392.034 689.544 392.226C689.998 392.587 690.529 392.697 691.139 392.555C691.364 392.504 691.599 392.514 691.82 392.585C692.041 392.656 692.239 392.785 692.393 392.959C692.974 393.618 693.718 393.834 694.625 393.608C694.801 393.565 694.986 393.579 695.152 393.648C695.319 393.717 695.458 393.837 695.55 393.99C695.706 394.245 695.918 394.437 696.188 394.564C696.457 394.692 696.744 394.745 697.049 394.724C697.828 394.674 698.604 394.667 699.377 394.702C699.688 394.717 699.908 394.865 700.036 395.149C700.291 395.716 700.734 395.925 701.364 395.776C701.839 395.67 702.112 395.854 702.183 396.329C702.218 396.57 702.448 396.722 702.874 396.786C702.98 396.8 703.083 396.807 703.182 396.807L705.478 396.818C705.86 396.818 706.165 396.973 706.392 397.285C706.852 397.916 707.501 398.111 708.337 397.87C708.932 397.693 709.372 397.881 709.655 398.433C709.903 398.908 710.293 399.078 710.824 398.943C710.998 398.896 711.183 398.912 711.345 398.99C711.507 399.069 711.636 399.203 711.706 399.369C711.969 399.971 712.415 400.184 713.046 400.006C713.428 399.9 713.68 400.035 713.801 400.41C713.956 400.892 714.279 401.105 714.768 401.048C715.108 401.006 715.398 401.108 715.639 401.356C716.291 402.037 717.103 402.37 718.073 402.355C718.428 402.348 718.725 402.472 718.966 402.727C719.717 403.514 720.511 404.194 721.347 404.768C722.261 405.385 723.048 406.001 723.707 406.618C725.124 407.936 726.488 409.42 727.799 411.071C728.309 411.709 728.224 412.4 728.66 413.017C730.914 416.205 732.611 419.306 733.752 422.317C734.644 424.691 735.615 426.923 736.664 429.014C737.826 431.345 739.01 433.566 740.214 435.678C740.943 436.951 741.782 438.157 742.723 439.281C744.438 441.336 746.276 443.36 748.239 445.351C750.755 447.902 753.596 450.07 756.764 451.856C757.033 452.005 757.359 452.409 757.742 453.068C757.777 453.131 757.83 453.163 757.901 453.163C758.057 453.177 758.139 453.138 758.146 453.046C758.167 452.621 758.355 452.536 758.709 452.791C758.808 452.869 758.915 452.954 759.028 453.046L760.016 460.381C760.035 460.516 760.082 460.647 760.154 460.763C760.226 460.88 760.322 460.98 760.435 461.057C760.548 461.134 760.676 461.187 760.811 461.211C760.946 461.236 761.084 461.232 761.218 461.199L776.619 457.479C776.742 457.448 776.87 457.443 776.995 457.466C777.12 457.489 777.238 457.538 777.342 457.611C777.446 457.683 777.533 457.778 777.597 457.887C777.661 457.996 777.701 458.118 777.714 458.244L780.095 480.257C778.487 480.03 776.928 479.697 775.418 479.258C773.888 478.819 772.357 478.433 770.826 478.1C765.136 476.881 758.542 475.031 751.045 472.551C750.103 472.239 749.21 471.931 748.367 471.626C744.611 470.266 740.972 468.955 737.451 467.693C731.491 465.561 724.494 462.74 716.458 459.233C713.326 457.858 710.279 456.37 707.317 454.768C706.544 454.35 705.754 453.982 704.946 453.663C704.146 453.351 703.377 452.972 702.64 452.526C701.563 451.874 700.447 451.324 699.292 450.878C697.754 450.29 696.383 449.439 695.178 448.327C694.898 448.068 694.56 447.875 694.189 447.764C693.339 447.516 692.666 446.974 692.17 446.137C692.035 445.918 691.94 445.932 691.883 446.18C691.862 446.272 691.851 446.361 691.851 446.446C691.852 446.456 691.85 446.466 691.845 446.475C691.84 446.483 691.832 446.49 691.822 446.495C691.812 446.499 691.801 446.501 691.789 446.5C691.777 446.499 691.765 446.495 691.755 446.488C689.771 445.071 687.699 443.781 685.537 442.619C685.225 442.456 685.07 442.194 685.07 441.833V441.025C685.077 440.635 684.889 440.383 684.506 440.27C683.897 440.093 683.408 439.668 683.039 438.994L677.491 410.976C677.461 410.821 677.4 410.674 677.312 410.543C677.224 410.412 677.111 410.299 676.98 410.212C676.848 410.125 676.701 410.065 676.546 410.036C676.391 410.006 676.232 410.008 676.077 410.04C657.894 413.803 639.601 417.098 621.198 419.926C621.033 419.951 620.874 420.012 620.733 420.102C620.592 420.193 620.472 420.313 620.379 420.453C620.287 420.593 620.226 420.751 620.198 420.916C620.171 421.082 620.178 421.251 620.221 421.414C625.514 442.474 629.801 463.25 633.082 483.744C633.111 483.927 633.21 484.092 633.359 484.204C633.508 484.315 633.695 484.363 633.879 484.339L649.78 482.266C649.932 482.25 650.084 482.29 650.206 482.378C650.328 482.467 650.411 482.598 650.439 482.744L656.881 517.056C656.93 517.339 656.814 517.502 656.53 517.545L556.466 533.361C556.291 533.386 556.114 533.342 555.973 533.238C555.831 533.135 555.738 532.98 555.712 532.808L550.195 496.722C550.161 496.499 550.218 496.272 550.351 496.091C550.485 495.91 550.685 495.789 550.907 495.755L564.757 493.693C564.888 493.674 565.006 493.605 565.086 493.502C565.165 493.398 565.2 493.268 565.182 493.14C562.886 475.261 560.197 458.063 555.988 440.44C554.592 434.573 553.288 429.159 552.076 424.199C547.059 403.663 543.902 382.798 539.481 362.134C537.695 353.815 536.044 345.181 534.528 336.231C534.435 335.685 534.659 335.352 535.197 335.232L580.733 324.826Z" fill="#391300"/>
<path d="M868.403 438.452L934.305 427.738C934.351 427.731 934.398 427.732 934.443 427.743C934.489 427.754 934.532 427.774 934.569 427.802C934.607 427.83 934.639 427.865 934.662 427.905C934.686 427.945 934.702 427.989 934.709 428.036L939.152 465.876C939.161 465.964 939.137 466.053 939.083 466.124C939.03 466.195 938.952 466.243 938.865 466.258L872.974 477.292C872.928 477.299 872.88 477.297 872.835 477.286C872.79 477.276 872.747 477.256 872.709 477.228C872.672 477.2 872.64 477.165 872.616 477.125C872.592 477.085 872.576 477.04 872.57 476.994L868.116 438.835C868.107 438.747 868.131 438.658 868.184 438.587C868.238 438.516 868.316 438.468 868.403 438.452Z" fill="#391300"/>
<path d="M683.04 438.994C683.408 439.668 683.897 440.093 684.506 440.27C684.889 440.383 685.077 440.635 685.07 441.025V441.832C685.07 442.194 685.226 442.456 685.537 442.619C687.699 443.781 689.771 445.071 691.756 446.488C691.766 446.495 691.777 446.499 691.789 446.5C691.801 446.501 691.812 446.499 691.822 446.495C691.832 446.49 691.84 446.483 691.846 446.475C691.851 446.466 691.853 446.456 691.851 446.446C691.851 446.36 691.862 446.272 691.883 446.18C691.94 445.932 692.036 445.918 692.17 446.137C692.666 446.973 693.339 447.516 694.19 447.764C694.56 447.875 694.898 448.068 695.178 448.327C696.383 449.439 697.754 450.29 699.292 450.878C700.447 451.324 701.563 451.874 702.64 452.525C703.377 452.972 704.146 453.351 704.946 453.663C705.754 453.982 706.544 454.35 707.317 454.768C710.279 456.37 713.326 457.858 716.458 459.233C724.494 462.74 731.491 465.56 737.451 467.693C740.973 468.955 744.611 470.266 748.367 471.626C749.21 471.931 750.103 472.239 751.046 472.551C758.543 475.031 765.136 476.881 770.827 478.099C772.357 478.433 773.888 478.819 775.418 479.258C776.928 479.697 778.487 480.03 780.095 480.257C780.329 484.923 781.392 489.707 781.488 494.713C781.537 494.955 781.488 495.207 781.351 495.414C781.213 495.622 780.999 495.767 780.754 495.818C748.073 502.302 715.005 508.187 681.551 513.474C681.403 513.497 681.251 513.464 681.125 513.382C680.999 513.299 680.909 513.173 680.871 513.027C679.546 507.599 678.356 502.253 677.3 496.988C676.938 495.213 676.449 493.544 676.162 491.832C675.447 487.545 674.036 483.329 674.706 479.301C674.694 479.236 674.695 479.17 674.709 479.106C674.723 479.042 674.749 478.982 674.787 478.928C674.825 478.875 674.872 478.829 674.928 478.795C674.984 478.76 675.046 478.737 675.11 478.727L689.364 476.484C689.5 476.462 689.63 476.413 689.747 476.34C689.864 476.267 689.964 476.17 690.043 476.057C690.121 475.944 690.176 475.816 690.204 475.681C690.231 475.546 690.231 475.407 690.204 475.272L683.04 438.994Z" fill="#391300"/>
</svg>
