<svg width="48" height="52" viewBox="0 0 48 52" fill="none" xmlns="http://www.w3.org/2000/svg">
<path id="Vector" d="M37.8667 45.8756L42.6667 49.9234V51.2727H5.33333V49.9234L10.1333 45.8756H5.33333C3.91885 45.8756 2.56229 45.307 1.5621 44.2948C0.561903 43.2827 0 41.9099 0 40.4785V10.7943C0 7.93144 1.12381 5.18588 3.12419 3.16156C5.12458 1.13725 7.83769 0 10.6667 0H37.3333C40.1623 0 42.8754 1.13725 44.8758 3.16156C46.8762 5.18588 48 7.93144 48 10.7943V40.4785C48 41.9099 47.4381 43.2827 46.4379 44.2948C45.4377 45.307 44.0812 45.8756 42.6667 45.8756H37.8667ZM10.6667 5.39713C9.25218 5.39713 7.89562 5.96575 6.89543 6.97791C5.89524 7.99007 5.33333 9.36285 5.33333 10.7943V40.4785H42.6667V10.7943C42.6667 9.36285 42.1048 7.99007 41.1046 6.97791C40.1044 5.96575 38.7478 5.39713 37.3333 5.39713H10.6667ZM24 37.7799C22.5855 37.7799 21.229 37.2113 20.2288 36.1991C19.2286 35.187 18.6667 33.8142 18.6667 32.3828C18.6667 30.9514 19.2286 29.5786 20.2288 28.5664C21.229 27.5543 22.5855 26.9856 24 26.9856C25.4145 26.9856 26.771 27.5543 27.7712 28.5664C28.7714 29.5786 29.3333 30.9514 29.3333 32.3828C29.3333 33.8142 28.7714 35.187 27.7712 36.1991C26.771 37.2113 25.4145 37.7799 24 37.7799ZM8 10.7943H40V21.5885H8V10.7943Z" fill="#B1884C"/>
</svg>
