<svg width="161" height="161" viewBox="0 0 161 161" fill="none" xmlns="http://www.w3.org/2000/svg">
<g filter="url(#filter0_i_1072_2514)">
<path fill-rule="evenodd" clip-rule="evenodd" d="M103.218 157.149C145.574 144.578 169.72 100.05 157.149 57.6935C144.578 15.3368 100.05 -8.80902 57.6934 3.76216C15.3368 16.3333 -8.80905 60.8611 3.76213 103.218C16.3333 145.574 60.8611 169.72 103.218 157.149ZM89.4292 40.7578C92.7399 34.6527 100.809 33.1013 106.148 37.5471C108.069 39.1475 109.388 41.354 109.888 43.8038C110.388 46.2536 110.04 48.8007 108.9 51.0259L96.8139 74.6075C96.0506 76.0969 94.8676 77.3302 93.4112 78.1548L81.6415 84.819C81.2358 85.0486 80.78 85.1753 80.314 85.188C79.848 85.2008 79.386 85.0993 78.9682 84.8924C78.5505 84.6854 78.1898 84.3793 77.9176 84.0008C77.6455 83.6224 77.4701 83.183 77.4069 82.7211L75.6245 69.6908C75.3782 67.886 75.7137 66.0496 76.5823 64.4484L89.4292 40.7578ZM73.2817 87.3355C72.4649 86.1996 71.9387 84.881 71.7492 83.4948L69.9661 70.4624C69.555 67.454 70.1138 64.3929 71.5613 61.7238L80.8318 44.6317L34.9638 58.2445C33.1664 58.778 31.4917 59.6602 30.0353 60.841C28.5789 62.0217 27.3693 63.4778 26.4757 65.126C25.5821 66.7742 25.0218 68.5824 24.8271 70.4471C24.6323 72.3119 24.8067 74.1968 25.3405 75.9941L29.7791 90.9498C29.8757 90.8173 29.9738 90.683 30.0732 90.5468C30.3435 90.1767 30.6238 89.7927 30.9113 89.3939L30.9128 89.3911L31.0561 89.1939C31.6148 88.4251 32.2067 87.6108 32.8353 86.7572C34.8621 84.009 37.1814 80.9857 39.6375 78.3436C42.0614 75.7372 44.7992 73.2974 47.7052 71.9298C50.7279 70.5062 54.1985 70.1504 57.4679 72.2632C59.0067 73.2575 60.1138 74.5395 60.7898 76.0544C61.4509 77.5355 61.6292 79.0837 61.5851 80.5406C61.5026 83.1526 60.6467 85.9846 59.9242 88.3671L59.7791 88.8415C58.9609 91.5598 58.3728 93.7047 58.4233 95.4481C58.4458 96.2467 58.6065 96.828 58.862 97.2716C59.1064 97.7018 59.5336 98.1778 60.3735 98.6314C61.5491 99.2689 62.4914 99.3133 63.2822 99.1358C64.1456 98.9462 65.0228 98.45 65.8723 97.7237C66.636 97.0565 67.3189 96.3021 67.907 95.4759C68.1001 95.209 68.2835 94.9352 68.4569 94.6551L68.5839 94.4411L68.6092 94.3978C68.9784 93.7465 69.5886 93.2663 70.3084 93.0605C71.0283 92.8547 71.8001 92.9399 72.4577 93.2977C73.1154 93.6556 73.6061 94.2574 73.8243 94.9735C74.0425 95.6897 73.9707 96.4629 73.6243 97.1266L73.6228 97.1295L73.6213 97.1323L73.6136 97.1465L73.5929 97.1812C73.269 97.7429 72.9171 98.2879 72.5384 98.8141C71.6838 100.011 70.6907 101.103 69.5798 102.068C68.2915 103.17 66.5866 104.257 64.5132 104.713C62.3712 105.186 60.0249 104.939 57.651 103.652C56.0006 102.755 54.7384 101.569 53.9027 100.102C53.0743 98.651 52.7588 97.0982 52.715 95.6102C52.6332 92.7771 53.5527 89.7157 54.3071 87.204L54.3103 87.1932L54.3547 87.0538C55.1669 84.3634 55.8193 82.1946 55.8775 80.3595C55.9065 79.486 55.7859 78.8546 55.574 78.3815C55.379 77.9413 55.0406 77.4914 54.3691 77.0593C53.216 76.3127 51.933 76.2527 50.1387 77.0949C48.2261 77.9961 46.0826 79.7974 43.8192 82.2298C41.5924 84.6252 39.4276 87.4383 37.4317 90.1463C36.827 90.9667 36.2264 91.793 35.6447 92.5947C34.3632 94.3617 33.1642 96.0136 32.1585 97.2651C32.0401 97.4122 31.91 97.5438 31.7709 97.6613L38.0123 118.691C39.0895 122.321 41.5645 125.374 44.8928 127.179C48.2211 128.984 52.13 129.393 55.7597 128.315L115.977 110.444C119.606 109.367 122.66 106.892 124.464 103.563C126.269 100.235 126.678 96.3262 125.601 92.6965L113.998 53.6014L101.897 77.2113C100.625 79.6934 98.6539 81.7486 96.2271 83.123L84.4574 89.7873C83.2401 90.4769 81.8725 90.8578 80.474 90.8967C79.0755 90.9356 77.6887 90.6314 76.4349 90.0105C75.1812 89.3898 74.0985 88.4713 73.2817 87.3355Z" fill="url(#paint0_linear_1072_2514)" fill-opacity="0.4"/>
</g>
<defs>
<filter id="filter0_i_1072_2514" x="0.43457" y="0.434639" width="160.042" height="164.042" filterUnits="userSpaceOnUse" color-interpolation-filters="sRGB">
<feFlood flood-opacity="0" result="BackgroundImageFix"/>
<feBlend mode="normal" in="SourceGraphic" in2="BackgroundImageFix" result="shape"/>
<feColorMatrix in="SourceAlpha" type="matrix" values="0 0 0 0 0 0 0 0 0 0 0 0 0 0 0 0 0 0 127 0" result="hardAlpha"/>
<feOffset dy="4"/>
<feGaussianBlur stdDeviation="2"/>
<feComposite in2="hardAlpha" operator="arithmetic" k2="-1" k3="1"/>
<feColorMatrix type="matrix" values="0 0 0 0 0 0 0 0 0 0 0 0 0 0 0 0 0 0 0.15 0"/>
<feBlend mode="normal" in2="shape" result="effect1_innerShadow_1072_2514"/>
</filter>
<linearGradient id="paint0_linear_1072_2514" x1="38.3476" y1="149.602" x2="168.676" y2="67.9151" gradientUnits="userSpaceOnUse">
<stop stop-color="#946E34" stop-opacity="0.85"/>
<stop offset="0.593656" stop-color="#385AAC" stop-opacity="0.2"/>
<stop offset="0.87243" stop-color="#FFD287" stop-opacity="0.3"/>
<stop offset="1" stop-color="#F8F3E8" stop-opacity="0.53"/>
</linearGradient>
</defs>
</svg>
