<svg width="42" height="36" viewBox="0 0 42 36" fill="none" xmlns="http://www.w3.org/2000/svg">
<path id="Vector" d="M13.65 15.8824L12.39 14.1882C12.1039 14.4049 11.8774 14.6917 11.732 15.0214C11.5866 15.3511 11.5272 15.7128 11.5594 16.0722C11.5916 16.4315 11.7143 16.7766 11.9159 17.0748C12.1175 17.3729 12.3913 17.6141 12.7113 17.7755L13.65 15.8824ZM22.05 20.1176L24.129 20.4162C24.1909 19.9765 24.1141 19.5282 23.9094 19.1349C23.7048 18.7415 23.3827 18.4231 22.9887 18.2245L22.05 20.1176ZM18.921 27.2308C18.8808 27.5067 18.8951 27.7879 18.9629 28.0583C19.0308 28.3286 19.151 28.5828 19.3165 28.8062C19.482 29.0296 19.6897 29.2178 19.9276 29.36C20.1654 29.5023 20.4288 29.5957 20.7026 29.635C20.9764 29.6744 21.2552 29.6588 21.523 29.5891C21.7908 29.5195 22.0423 29.3973 22.2631 29.2294C22.4839 29.0615 22.6696 28.8512 22.8096 28.6107C22.9497 28.3703 23.0412 28.1043 23.079 27.828L18.921 27.2308ZM22.05 9.52941L23.5347 8.03224C23.1773 7.67181 22.703 7.45348 22.1988 7.4173C21.6946 7.38112 21.1944 7.52954 20.79 7.83529L22.05 9.52941ZM27.3 14.8235L25.8153 16.3207C26.209 16.7179 26.7431 16.9411 27.3 16.9412V14.8235ZM31.5 16.9412C32.057 16.9412 32.5911 16.7181 32.9849 16.3209C33.3787 15.9238 33.6 15.3852 33.6 14.8235C33.6 14.2619 33.3787 13.7233 32.9849 13.3261C32.5911 12.929 32.057 12.7059 31.5 12.7059V16.9412ZM12.6 27.5294C12.6 28.6527 12.1575 29.7299 11.3698 30.5242C10.5822 31.3185 9.51391 31.7647 8.4 31.7647V36C10.6278 36 12.7644 35.1076 14.3397 33.519C15.915 31.9305 16.8 29.776 16.8 27.5294H12.6ZM8.4 31.7647C7.28609 31.7647 6.2178 31.3185 5.43015 30.5242C4.6425 29.7299 4.2 28.6527 4.2 27.5294H0C0 29.776 0.884998 31.9305 2.4603 33.519C4.03561 35.1076 6.17218 36 8.4 36V31.7647ZM4.2 27.5294C4.2 26.4061 4.6425 25.3289 5.43015 24.5346C6.2178 23.7403 7.28609 23.2941 8.4 23.2941V19.0588C6.17218 19.0588 4.03561 19.9513 2.4603 21.5398C0.884998 23.1283 0 25.2829 0 27.5294H4.2ZM8.4 23.2941C9.51391 23.2941 10.5822 23.7403 11.3698 24.5346C12.1575 25.3289 12.6 26.4061 12.6 27.5294H16.8C16.8 25.2829 15.915 23.1283 14.3397 21.5398C12.7644 19.9513 10.6278 19.0588 8.4 19.0588V23.2941ZM12.7113 17.7755L21.1113 22.0108L22.9887 18.2245L14.5887 13.9892L12.7113 17.7755ZM19.971 19.8191L18.921 27.2308L23.079 27.828L24.129 20.4162L19.971 19.8191ZM14.91 17.5765L23.31 11.2235L20.79 7.83529L12.39 14.1882L14.91 17.5765ZM20.5653 11.0266L25.8153 16.3207L28.7847 13.3264L23.5347 8.03224L20.5653 11.0266ZM27.3 16.9412H31.5V12.7059H27.3V16.9412ZM37.8 27.5294C37.8 28.6527 37.3575 29.7299 36.5698 30.5242C35.7822 31.3185 34.7139 31.7647 33.6 31.7647V36C35.8278 36 37.9644 35.1076 39.5397 33.519C41.115 31.9305 42 29.776 42 27.5294H37.8ZM33.6 31.7647C32.4861 31.7647 31.4178 31.3185 30.6302 30.5242C29.8425 29.7299 29.4 28.6527 29.4 27.5294H25.2C25.2 29.776 26.085 31.9305 27.6603 33.519C29.2356 35.1076 31.3722 36 33.6 36V31.7647ZM29.4 27.5294C29.4 26.4061 29.8425 25.3289 30.6302 24.5346C31.4178 23.7403 32.4861 23.2941 33.6 23.2941V19.0588C31.3722 19.0588 29.2356 19.9513 27.6603 21.5398C26.085 23.1283 25.2 25.2829 25.2 27.5294H29.4ZM33.6 23.2941C34.7139 23.2941 35.7822 23.7403 36.5698 24.5346C37.3575 25.3289 37.8 26.4061 37.8 27.5294H42C42 25.2829 41.115 23.1283 39.5397 21.5398C37.9644 19.9513 35.8278 19.0588 33.6 19.0588V23.2941ZM27.3 4.23529V8.47059C28.4139 8.47059 29.4822 8.02437 30.2698 7.2301C31.0575 6.43583 31.5 5.35856 31.5 4.23529H27.3ZM27.3 4.23529H23.1C23.1 5.35856 23.5425 6.43583 24.3302 7.2301C25.1178 8.02437 26.1861 8.47059 27.3 8.47059V4.23529ZM27.3 4.23529V0C26.1861 0 25.1178 0.446217 24.3302 1.24049C23.5425 2.03476 23.1 3.11202 23.1 4.23529H27.3ZM27.3 4.23529H31.5C31.5 3.11202 31.0575 2.03476 30.2698 1.24049C29.4822 0.446217 28.4139 0 27.3 0V4.23529Z" fill="#B1884C"/>
</svg>
